<svg width="30" height="50" viewBox="0 0 30 50" fill="none" xmlns="http://www.w3.org/2000/svg">
<path d="M29.8208 20.6122C29.5962 20.2313 29.186 19.9994 28.7465 19.9994H17.4963V1.24899C17.4963 0.677688 17.1081 0.179653 16.5563 0.0380251C16.0045 -0.10114 15.4235 0.150333 15.1525 0.650831L0.152167 28.1514C-0.0578001 28.5371 -0.0504748 29.0083 0.17414 29.3868C0.396313 29.7677 0.806465 29.9996 1.24591 29.9996H12.4961V48.75C12.4961 49.3213 12.8843 49.8193 13.4361 49.9609C13.5386 49.9878 13.6436 50 13.7462 50C14.1954 50 14.6202 49.7559 14.8448 49.3481L29.8451 21.8476C30.0551 21.4618 30.0453 20.9906 29.8207 20.6122L29.8208 20.6122ZM14.9961 43.8476V28.7498C14.9961 28.0589 14.437 27.4998 13.7461 27.4998H3.35023L14.9961 6.15188V21.2497C14.9961 21.9406 15.5552 22.4997 16.2461 22.4997H26.642L14.9961 43.8476Z" fill="#3300C4"/>
</svg>
