<svg width="44" height="50" viewBox="0 0 44 50" fill="none" xmlns="http://www.w3.org/2000/svg">
<path d="M21.7286 50L0 37.5534V12.5534L21.519 0L43.1428 12.4466L43.2476 37.4466L21.7286 50ZM2.10835 36.2876L21.6238 47.4684L41.1392 36.1808L41.0344 13.7124L21.519 2.53165L2.10834 13.8192L2.10835 36.2876Z" fill="#3300C4"/>
<path d="M41.5999 12.1402L42.6601 13.9638L22.138 25.8823L21.0779 24.0587L41.5999 12.1402Z" fill="#3300C4"/>
<path d="M22.6663 24.9407L22.7948 48.6749L20.6845 48.6868L20.5559 24.9526L22.6663 24.9407Z" fill="#3300C4"/>
<path d="M1.57049 12.2764L22.1578 24.0881L21.1076 25.9176L0.520264 14.1059L1.57049 12.2764Z" fill="#3300C4"/>
<path d="M33.0162 27.2152H30.9058V19.6203L10.8643 8.12304L11.9184 6.2243L33.0162 18.3544V27.2152Z" fill="#3300C4"/>
</svg>
