<svg width="50" height="44" viewBox="0 0 50 44" fill="none" xmlns="http://www.w3.org/2000/svg">
<path d="M10.2197 18.3718C8.79171 18.3718 7.5044 19.2328 6.95879 20.5499C6.41105 21.8692 6.71369 23.3888 7.72389 24.399C8.73202 25.4072 10.2516 25.7098 11.5709 25.1642C12.8902 24.6164 13.7491 23.3291 13.7491 21.9011C13.7469 19.9532 12.1677 18.3739 10.2196 18.3717L10.2197 18.3718ZM10.2197 23.2503C9.67407 23.2503 9.18389 22.9221 8.97503 22.417C8.76617 21.914 8.88125 21.3343 9.26702 20.9485C9.65278 20.5627 10.2325 20.4477 10.7355 20.6565C11.2385 20.8654 11.5667 21.3577 11.5667 21.9012C11.5752 22.2635 11.4366 22.6151 11.183 22.8752C10.9294 23.1331 10.582 23.2801 10.2197 23.2823L10.2197 23.2503Z" fill="#3300C4"/>
<path d="M20.7931 18.3718C19.3673 18.3739 18.0799 19.2349 17.5365 20.5542C16.9909 21.8735 17.2956 23.3909 18.3059 24.399C19.314 25.4093 20.8336 25.7098 22.1507 25.162C23.47 24.6164 24.3289 23.3291 24.3289 21.9011C24.3268 19.951 22.7433 18.3717 20.7931 18.3717V18.3718ZM20.7931 23.2503C20.2496 23.2481 19.7594 22.9178 19.5527 22.4148C19.346 21.9097 19.4632 21.3321 19.849 20.9464C20.2347 20.5627 20.8123 20.4477 21.3153 20.6565C21.8183 20.8654 22.1465 21.3577 22.1465 21.9012C22.155 22.2656 22.0165 22.6173 21.7628 22.8773C21.5071 23.1373 21.1575 23.2844 20.7931 23.2823L20.7931 23.2503Z" fill="#3300C4"/>
<path d="M31.373 18.3718C29.945 18.3718 28.6577 19.2328 28.1121 20.5499C27.5644 21.8692 27.867 23.3888 28.8772 24.399C29.8875 25.4072 31.4049 25.7098 32.7242 25.1642C34.0435 24.6164 34.9024 23.3291 34.9024 21.9011C34.9002 19.9532 33.321 18.3739 31.3729 18.3717L31.373 18.3718ZM31.373 23.2503C30.8274 23.2503 30.3372 22.9221 30.1284 22.417C29.9195 21.914 30.0346 21.3343 30.4203 20.9485C30.8061 20.5627 31.3858 20.4477 31.8888 20.6565C32.3918 20.8654 32.72 21.3577 32.72 21.9012C32.7285 22.2635 32.59 22.6151 32.3363 22.8752C32.0827 23.1331 31.7353 23.2801 31.373 23.2823L31.373 23.2503Z" fill="#3300C4"/>
<path d="M50 4.36487C50 3.20758 49.5396 2.09721 48.7212 1.2788C47.9028 0.460385 46.7924 0 45.6351 0H12.7835C10.373 0 8.41858 1.95437 8.41858 4.36487V8.89387H4.36487C1.95437 8.89387 0 10.8482 0 13.2587V30.3472C0 31.5045 0.460358 32.6149 1.2788 33.4333C2.09724 34.2517 3.20764 34.7121 4.36487 34.7121H9.08352L10.8695 42.4445C10.959 42.8409 11.2617 43.1542 11.656 43.2565C12.0481 43.3588 12.4659 43.2352 12.7408 42.9347L20.2151 34.7123H37.2206C38.3801 34.7123 39.4883 34.252 40.3089 33.4335C41.1273 32.6151 41.5855 31.5047 41.5855 30.3475V25.8185H45.635C46.7923 25.8185 47.9026 25.3602 48.721 24.5419C49.5395 23.7213 49.9998 22.613 49.9998 21.4536L50 4.36487ZM39.4032 30.3473C39.4032 30.927 39.1751 31.4812 38.7638 31.8904C38.3546 32.2996 37.8005 32.5298 37.2207 32.5298H19.7291C19.4222 32.5319 19.128 32.6619 18.9213 32.89L12.5273 39.9168L11.0205 33.3695C10.9075 32.8751 10.4664 32.5234 9.95698 32.5255H4.36449C3.16033 32.5255 2.18205 31.5473 2.18205 30.3431V13.259C2.18205 12.0548 3.16033 11.0766 4.36449 11.0766H37.2205C37.8002 11.0766 38.3544 11.3067 38.7636 11.716C39.1749 12.1252 39.403 12.6814 39.403 13.259L39.4032 30.3473ZM47.8176 21.4534C47.8176 22.0331 47.5874 22.5872 47.1782 22.9964C46.769 23.4077 46.2148 23.6358 45.6351 23.6358H41.5857V13.2692C41.5857 12.1119 41.1274 11.0016 40.3091 10.1831C39.4885 9.36473 38.3802 8.90434 37.2208 8.90434H10.6011V4.37535V4.37748C10.6011 3.17119 11.5794 2.19504 12.7835 2.19504H45.6352C46.2149 2.19504 46.769 2.42309 47.1782 2.83444C47.5874 3.24365 47.8176 3.79777 47.8176 4.37748L47.8176 21.4534Z" fill="#3300C4"/>
</svg>
