<svg width="569" height="269" fill="none" xmlns="http://www.w3.org/2000/svg"><g filter="url(#filter0_d)"><rect x="15" y="11" width="539" height="239" rx="10" fill="#fff"/></g><path d="M57.786 62.61h1.365c.292 0 .5.053.622.159.123.105.184.281.184.526 0 .25-.063.43-.19.54-.123.11-.328.165-.616.165H54.86c-.288 0-.495-.055-.622-.165-.123-.11-.184-.29-.184-.54 0-.245.059-.42.177-.526.123-.106.333-.16.629-.16h1.365v-3.084h-.718c-.283 0-.486-.053-.61-.159-.122-.11-.183-.29-.183-.54 0-.249.06-.427.178-.532.118-.106.323-.16.615-.16h1.911c.118 0 .21.026.273.077a.23.23 0 01.095.197v4.202zm-.914-7.344c.309 0 .514.059.616.177.101.119.152.402.152.85 0 .433-.046.701-.14.807-.088.102-.302.152-.64.152-.33 0-.544-.048-.642-.146-.093-.097-.14-.291-.14-.584 0-.541.05-.886.147-1.034.097-.148.313-.222.647-.222zm8.24 3.3c.177-.19.382-.334.615-.431.233-.102.483-.153.75-.153.575 0 .99.172 1.243.515.254.338.381.907.381 1.707v2.406h.089c.199 0 .347.06.444.178.102.114.153.283.153.507 0 .254-.053.436-.16.546-.1.106-.276.159-.526.159h-1.079a.444.444 0 01-.267-.07.247.247 0 01-.095-.203v-3.586c0-.284-.044-.495-.133-.635a.431.431 0 00-.387-.21.555.555 0 00-.496.286c-.114.186-.17.455-.17.806v2.222h.094c.195 0 .343.06.445.178.101.114.152.283.152.507 0 .254-.053.436-.159.546-.105.106-.283.159-.533.159h-1.079a.475.475 0 01-.273-.07.241.241 0 01-.102-.203v-3.586c0-.284-.042-.495-.126-.635a.417.417 0 00-.381-.21.569.569 0 00-.502.286c-.118.19-.177.46-.177.806v2.222h.095c.199 0 .347.057.444.171.102.114.152.286.152.514 0 .254-.053.436-.158.546-.106.106-.284.159-.533.159h-1.441c-.246 0-.422-.055-.527-.165-.106-.11-.159-.29-.159-.54 0-.224.049-.393.146-.507.102-.119.252-.178.45-.178h.09v-3.085h-.09c-.198 0-.35-.06-.456-.178-.102-.123-.153-.296-.153-.52 0-.246.053-.421.16-.527.11-.11.289-.165.539-.165h.856c.174 0 .29.036.35.108.063.067.095.2.095.4.156-.216.345-.38.565-.49.22-.113.465-.17.736-.17.246 0 .46.048.641.145.182.093.34.24.476.438zm6.195 4.837v1.727h.806c.288 0 .493.055.615.165.128.11.19.29.19.54 0 .245-.06.42-.183.526-.123.106-.33.159-.622.159H69.42c-.292 0-.497-.053-.615-.159-.119-.101-.178-.277-.178-.526 0-.25.06-.43.178-.54.122-.11.328-.165.615-.165h.375v-5.605h-.102c-.224 0-.395-.06-.514-.178-.118-.118-.178-.292-.178-.52 0-.25.06-.428.178-.533.119-.106.324-.16.616-.16h.977c.123 0 .214.024.273.07.06.043.09.106.09.191v.457c.215-.288.475-.503.78-.647a2.378 2.378 0 011.041-.223c.868 0 1.587.278 2.158.832.572.554.857 1.253.857 2.095 0 .88-.277 1.61-.831 2.19-.555.575-1.253.863-2.095.863-.343 0-.665-.047-.965-.14a2.355 2.355 0 01-.774-.419zm1.466-4.069c-.419 0-.764.155-1.035.464-.27.309-.406.704-.406 1.187 0 .482.135.878.406 1.187.271.309.616.463 1.035.463.419 0 .764-.154 1.035-.463.275-.313.412-.709.412-1.187 0-.483-.135-.878-.406-1.187a1.322 1.322 0 00-1.041-.464zm7.547 0c-.495 0-.903.163-1.225.49-.317.32-.476.733-.476 1.237 0 .508.159.929.476 1.263.322.33.73.495 1.225.495.495 0 .904-.165 1.225-.495.322-.334.483-.755.483-1.263 0-.504-.161-.916-.483-1.238-.317-.326-.725-.489-1.225-.489zm0-1.339c1.029 0 1.862.288 2.501.863.64.576.959 1.314.959 2.216 0 .905-.32 1.646-.959 2.221-.639.576-1.472.864-2.5.864-1.025 0-1.856-.288-2.495-.864-.64-.575-.959-1.316-.959-2.221 0-.902.32-1.64.959-2.216.643-.575 1.475-.863 2.494-.863zm7.522 2.558v2.057h1.498c.288 0 .491.053.61.159.122.105.184.281.184.526 0 .25-.062.43-.184.54-.119.11-.322.165-.61.165h-3.548c-.292 0-.5-.055-.622-.165-.123-.11-.184-.29-.184-.54 0-.245.06-.42.178-.526.122-.106.332-.16.628-.16h.482v-3.084h-.273c-.287 0-.493-.053-.615-.159-.119-.11-.178-.29-.178-.54 0-.249.057-.427.171-.532.119-.106.326-.16.622-.16h1.352c.115 0 .204.026.267.077a.23.23 0 01.095.197v.94c.462-.496.891-.85 1.289-1.06a2.74 2.74 0 011.295-.318c.419 0 .751.095.996.285a.898.898 0 01.369.756.805.805 0 01-.254.61c-.17.156-.388.234-.654.234-.19 0-.417-.07-.68-.21-.257-.14-.437-.209-.539-.209-.203 0-.442.091-.717.273-.275.182-.601.463-.978.844zm7.656-2.063h1.936c.292 0 .499.053.622.159.122.106.184.281.184.527 0 .25-.064.43-.19.54-.123.11-.329.164-.616.164h-1.936v1.625c0 .457.07.77.209.94.14.17.385.254.736.254.33 0 .72-.096 1.168-.286.449-.19.75-.286.902-.286.173 0 .321.07.444.21.127.135.19.3.19.495 0 .326-.296.624-.888.895-.588.267-1.257.4-2.006.4-.436 0-.819-.06-1.149-.178a1.819 1.819 0 01-.78-.508c-.14-.169-.24-.372-.3-.609-.058-.237-.088-.633-.088-1.187V59.88h-.597c-.287 0-.493-.055-.615-.165-.119-.11-.178-.29-.178-.54 0-.249.06-.424.178-.526.118-.106.323-.159.615-.159h.597v-1.485c0-.292.06-.497.178-.616.123-.118.323-.178.603-.178.28 0 .478.06.597.178.122.119.184.324.184.616v1.485zm133.573-.171h1.365c.292 0 .499.055.622.165.123.106.184.281.184.527 0 .245-.063.423-.19.533-.123.11-.328.165-.616.165h-1.365v2.9h1.263c.292 0 .5.054.623.16.122.105.184.281.184.526 0 .25-.064.43-.191.54-.123.11-.328.165-.616.165h-3.497c-.292 0-.499-.055-.622-.165-.123-.11-.184-.29-.184-.54 0-.245.059-.42.177-.526.123-.106.333-.16.629-.16h.673v-2.9h-.673c-.292 0-.499-.055-.622-.165-.123-.11-.184-.288-.184-.533 0-.25.059-.428.177-.534.123-.105.333-.158.629-.158h.673v-.362c0-.83.213-1.418.641-1.765.427-.35 1.155-.526 2.183-.526.534 0 .925.063 1.175.19.254.127.381.324.381.59a.55.55 0 01-.172.426c-.11.105-.26.158-.45.158-.14 0-.339-.019-.597-.057a4.25 4.25 0 00-.533-.057c-.394 0-.671.089-.832.267-.156.173-.235.482-.235.926v.21zm7.116 2.234v2.057h1.498c.288 0 .491.053.609.159.123.105.185.281.185.526 0 .25-.062.43-.185.54-.118.11-.321.165-.609.165h-3.548c-.292 0-.5-.055-.622-.165-.123-.11-.184-.29-.184-.54 0-.245.059-.42.177-.526.123-.106.332-.16.629-.16h.482v-3.084h-.273c-.288 0-.493-.053-.616-.159-.118-.11-.177-.29-.177-.54 0-.249.057-.427.171-.532.119-.106.326-.16.622-.16h1.352a.42.42 0 01.267.077.23.23 0 01.095.197v.94c.461-.496.891-.85 1.289-1.06a2.737 2.737 0 011.295-.318c.418 0 .751.095.996.285a.897.897 0 01.368.756.802.802 0 01-.254.61c-.169.156-.387.234-.653.234-.191 0-.417-.07-.68-.21-.258-.14-.438-.209-.539-.209-.203 0-.442.091-.717.273-.276.182-.601.463-.978.844zm8.093-1.218c-.495 0-.903.162-1.225.488-.317.322-.476.734-.476 1.238 0 .508.159.929.476 1.263.322.33.73.495 1.225.495.495 0 .904-.165 1.225-.495.322-.334.483-.755.483-1.263 0-.504-.161-.916-.483-1.238-.317-.326-.725-.489-1.225-.489zm0-1.34c1.029 0 1.862.288 2.501.863.639.576.959 1.314.959 2.216 0 .905-.32 1.646-.959 2.221-.639.576-1.472.864-2.501.864-1.024 0-1.855-.288-2.494-.864-.639-.575-.959-1.316-.959-2.221 0-.902.32-1.64.959-2.216.643-.575 1.474-.863 2.494-.863zm8.214.571a1.77 1.77 0 01.616-.431c.233-.102.482-.153.749-.153.575 0 .99.172 1.244.515.254.338.381.907.381 1.707v2.406h.089c.199 0 .347.06.444.178.102.114.152.283.152.507 0 .254-.052.436-.158.546-.102.106-.277.159-.527.159h-1.079a.447.447 0 01-.267-.07.248.248 0 01-.095-.203v-3.586c0-.284-.044-.495-.133-.635a.432.432 0 00-.388-.21.556.556 0 00-.495.286c-.114.186-.171.455-.171.806v2.222h.095c.195 0 .343.06.445.178.101.114.152.283.152.507 0 .254-.053.436-.159.546-.106.106-.283.159-.533.159h-1.079a.476.476 0 01-.273-.07.241.241 0 01-.102-.203v-3.586c0-.284-.042-.495-.127-.635a.415.415 0 00-.38-.21.57.57 0 00-.502.286c-.118.19-.178.46-.178.806v2.222h.096c.198 0 .347.057.444.171.101.114.152.286.152.514 0 .254-.053.436-.158.546-.106.106-.284.159-.534.159h-1.441c-.245 0-.421-.055-.526-.165-.106-.11-.159-.29-.159-.54 0-.224.049-.393.146-.507.101-.119.252-.178.451-.178h.088v-3.085h-.088c-.199 0-.352-.06-.457-.178-.102-.123-.153-.296-.153-.52 0-.246.053-.421.159-.527.11-.11.29-.165.539-.165h.857c.174 0 .29.036.349.108.064.067.096.2.096.4a1.572 1.572 0 011.301-.66c.245 0 .459.048.641.145.182.093.341.24.476.438zM55.171 101.442c.11.47.322.821.635 1.054.317.232.738.349 1.263.349.525 0 1.043-.127 1.555-.381.512-.258.821-.387.927-.387a.47.47 0 01.38.177.647.647 0 01.153.445c0 .398-.294.74-.882 1.028-.589.288-1.316.432-2.184.432-1.024 0-1.858-.288-2.5-.864-.64-.575-.96-1.316-.96-2.221 0-.902.32-1.64.96-2.216.642-.575 1.476-.863 2.5-.863.914 0 1.672.271 2.273.813.6.537.9 1.197.9 1.98 0 .25-.06.421-.183.514-.119.093-.366.14-.743.14h-4.094zm3.421-.99c-.072-.394-.258-.699-.558-.914-.297-.216-.684-.324-1.162-.324-.461 0-.834.103-1.117.31-.28.204-.474.513-.584.928h3.421zm5.466-1.041l.672.793.73-.793c-.14 0-.24-.049-.304-.146-.064-.102-.096-.26-.096-.476 0-.212.053-.373.16-.483.11-.114.268-.171.475-.171h1.352c.284 0 .487.055.61.165.123.11.184.29.184.54 0 .232-.061.406-.184.52-.119.11-.305.165-.559.165h-.247l-1.327 1.447 1.587 1.625h.146c.245 0 .43.059.552.178.127.114.19.288.19.52 0 .25-.065.43-.196.54-.127.11-.335.165-.622.165h-1.537c-.207 0-.366-.055-.476-.165-.105-.114-.158-.275-.158-.482 0-.221.031-.379.095-.477.068-.101.173-.152.317-.152h.051l-.806-.895-.78.895h.025c.152 0 .262.049.33.146.067.093.101.239.101.438 0 .237-.053.413-.158.527-.102.11-.26.165-.477.165h-1.352c-.287 0-.493-.055-.615-.165-.119-.11-.178-.29-.178-.54 0-.232.057-.406.171-.52.119-.119.294-.178.527-.178h.12l1.505-1.523-1.453-1.55h-.197c-.25 0-.438-.056-.565-.17-.127-.115-.19-.286-.19-.515 0-.25.063-.43.19-.54.127-.11.332-.164.616-.164h1.536c.216 0 .374.057.476.171.106.114.158.288.158.52 0 .195-.033.341-.101.439-.063.097-.163.146-.298.146zm7.249 3.992v1.727h.806c.288 0 .493.055.615.165.128.11.19.29.19.539 0 .246-.06.422-.183.527-.123.106-.33.159-.622.159H69.42c-.292 0-.497-.053-.615-.159-.119-.101-.178-.277-.178-.527 0-.249.06-.429.178-.539.122-.11.328-.165.615-.165h.375v-5.605h-.102c-.224 0-.395-.06-.514-.178-.118-.118-.178-.292-.178-.52 0-.25.06-.428.178-.534.119-.105.324-.158.616-.158h.977c.123 0 .214.023.273.07.06.042.09.105.09.19v.457c.215-.288.475-.504.78-.647a2.378 2.378 0 011.041-.223c.868 0 1.587.278 2.158.832.572.554.857 1.253.857 2.095 0 .88-.277 1.61-.831 2.19-.555.575-1.253.863-2.095.863-.343 0-.665-.047-.965-.14a2.348 2.348 0 01-.774-.419zm1.466-4.069c-.419 0-.764.155-1.035.464-.27.309-.406.704-.406 1.187 0 .482.135.878.406 1.187.271.309.616.463 1.035.463.419 0 .764-.154 1.035-.463.275-.313.412-.709.412-1.187 0-.483-.135-.878-.406-1.187a1.322 1.322 0 00-1.041-.463zm7.547 0c-.495 0-.903.163-1.225.49-.317.321-.476.733-.476 1.237 0 .508.159.929.476 1.263.322.33.73.495 1.225.495.495 0 .904-.165 1.225-.495.322-.334.483-.755.483-1.263 0-.504-.161-.916-.483-1.238-.317-.326-.725-.488-1.225-.488zm0-1.339c1.029 0 1.862.288 2.501.863.64.576.959 1.314.959 2.216 0 .905-.32 1.646-.959 2.221-.639.576-1.472.864-2.5.864-1.025 0-1.856-.288-2.495-.864-.64-.575-.959-1.316-.959-2.221 0-.902.32-1.64.959-2.216.643-.575 1.475-.863 2.494-.863zm7.522 2.558v2.057h1.498c.288 0 .491.053.61.159.122.105.184.281.184.526 0 .25-.062.43-.184.54-.119.11-.322.165-.61.165h-3.548c-.292 0-.5-.055-.622-.165-.123-.11-.184-.29-.184-.54 0-.245.06-.421.178-.526.122-.106.332-.159.628-.159h.482v-3.085h-.273c-.287 0-.493-.053-.615-.159-.119-.11-.178-.29-.178-.54 0-.249.057-.427.171-.532.119-.106.326-.16.622-.16h1.352c.115 0 .204.026.267.077a.23.23 0 01.095.197v.94c.462-.496.891-.85 1.289-1.06a2.74 2.74 0 011.295-.318c.419 0 .751.095.996.285a.898.898 0 01.369.756.805.805 0 01-.254.61c-.17.156-.388.234-.654.234-.19 0-.417-.07-.68-.21-.257-.14-.437-.209-.539-.209-.203 0-.442.091-.717.273-.275.182-.601.463-.978.844zm7.656-2.063h1.936c.292 0 .499.053.622.159.122.106.184.281.184.527 0 .25-.064.43-.19.54-.123.11-.329.164-.616.164h-1.936v1.625c0 .457.07.771.209.94.14.169.385.254.736.254.33 0 .72-.095 1.168-.286.449-.19.75-.286.902-.286a.57.57 0 01.444.21c.127.135.19.3.19.495 0 .326-.296.624-.888.895-.588.267-1.257.4-2.006.4-.436 0-.819-.059-1.149-.178a1.816 1.816 0 01-.78-.508 1.52 1.52 0 01-.3-.609c-.058-.237-.088-.633-.088-1.187V99.88h-.597c-.287 0-.493-.055-.615-.165-.119-.11-.178-.29-.178-.54 0-.249.06-.424.178-.526.118-.106.323-.159.615-.159h.597v-1.485c0-.292.06-.497.178-.616.123-.118.323-.178.603-.178.28 0 .478.06.597.178.122.119.184.324.184.616v1.485zm18.757 4.12h.108c.228 0 .4.059.514.178.114.114.171.283.171.507 0 .25-.061.43-.184.54-.118.11-.321.165-.609.165h-.971a.498.498 0 01-.286-.07.248.248 0 01-.095-.203v-.444a2.063 2.063 0 01-.8.654 2.627 2.627 0 01-1.098.222c-.83 0-1.524-.282-2.082-.845-.559-.567-.838-1.273-.838-2.12 0-.88.281-1.61.844-2.19.567-.58 1.287-.87 2.158-.87.301 0 .593.052.876.153.288.097.551.237.787.42V97.1h-.844c-.292 0-.499-.055-.622-.165-.123-.114-.184-.294-.184-.54 0-.25.061-.429.184-.539.123-.11.33-.165.622-.165h1.974c.144 0 .242.03.292.089.055.059.083.17.083.33v6.5zm-2.977-3.123c-.415 0-.76.156-1.035.47-.271.308-.406.702-.406 1.18 0 .491.135.893.406 1.206.271.309.616.464 1.035.464.419 0 .764-.157 1.034-.47.276-.313.413-.713.413-1.2 0-.474-.137-.867-.413-1.18a1.318 1.318 0 00-1.034-.47zm6.354 1.955c.11.47.321.821.635 1.054.317.232.738.349 1.263.349.525 0 1.043-.127 1.555-.381.512-.258.821-.387.927-.387.156 0 .283.059.381.177a.65.65 0 01.152.445c0 .398-.294.74-.882 1.028-.589.288-1.316.432-2.184.432-1.024 0-1.858-.288-2.501-.864-.639-.575-.958-1.316-.958-2.221 0-.902.319-1.64.958-2.216.643-.575 1.477-.863 2.501-.863.914 0 1.672.271 2.272.813.601.537.902 1.197.902 1.98 0 .25-.062.421-.184.514-.119.093-.366.14-.743.14h-4.094zm3.421-.99c-.072-.394-.258-.699-.558-.914-.297-.216-.684-.324-1.162-.324-.461 0-.834.103-1.117.31-.279.204-.474.513-.584.928h3.421zm6.519-2.133h1.365c.292 0 .499.055.622.165.123.106.184.281.184.527 0 .245-.063.423-.19.533-.123.11-.328.165-.616.165h-1.365v2.901h1.263c.292 0 .5.053.623.159.122.105.184.281.184.526 0 .25-.064.43-.191.54-.123.11-.328.165-.616.165h-3.497c-.292 0-.499-.055-.622-.165-.123-.11-.184-.29-.184-.54 0-.245.059-.421.177-.526.123-.106.333-.159.629-.159h.673v-2.901h-.673c-.292 0-.499-.055-.622-.165-.123-.11-.184-.288-.184-.533 0-.25.059-.428.177-.533.123-.106.333-.16.629-.16h.673v-.361c0-.83.213-1.418.641-1.765.427-.35 1.155-.526 2.183-.526.534 0 .925.063 1.175.19.254.127.381.324.381.59 0 .178-.058.32-.172.426-.11.105-.26.158-.45.158-.14 0-.339-.019-.597-.057a4.25 4.25 0 00-.533-.057c-.394 0-.671.089-.832.267-.156.173-.235.482-.235.926v.21zm9.991 4.291h.102c.229 0 .402.061.521.184.122.118.184.29.184.514 0 .246-.064.423-.191.533-.123.106-.328.159-.616.159h-.596c-.212 0-.37-.04-.476-.121-.102-.08-.186-.226-.254-.438a4.376 4.376 0 01-1.117.534 4.017 4.017 0 01-1.194.184c-.681 0-1.216-.17-1.606-.508-.389-.339-.584-.802-.584-1.39 0-.635.252-1.128.756-1.479.503-.351 1.21-.527 2.12-.527.203 0 .419.01.647.032.229.021.485.055.768.101v-.12c0-.381-.093-.671-.279-.87-.182-.199-.453-.298-.812-.298-.28 0-.637.103-1.073.31-.432.208-.749.312-.952.312a.681.681 0 01-.483-.172.618.618 0 01-.184-.463c0-.343.25-.614.749-.813.504-.203 1.187-.304 2.05-.304.902 0 1.547.173 1.936.52.39.347.584.936.584 1.765v2.355zm-1.536-1.225a5.868 5.868 0 00-.584-.102 3.557 3.557 0 00-.495-.038c-.465 0-.831.078-1.098.235-.262.157-.393.372-.393.647 0 .246.084.434.253.565.17.127.413.191.73.191.292 0 .567-.043.826-.127.258-.085.512-.216.761-.394v-.977zm7.757-1.86h-.101c-.229 0-.402-.06-.521-.178-.114-.118-.171-.292-.171-.52 0-.25.059-.428.177-.534.119-.105.324-.158.616-.158h1.2c.114 0 .203.025.266.076a.23.23 0 01.096.197v4.202h.101c.229 0 .402.059.521.178.122.118.184.287.184.507 0 .254-.062.436-.184.546-.123.106-.33.159-.622.159h-1.067a.455.455 0 01-.279-.076.256.256 0 01-.095-.21v-.482a1.987 1.987 0 01-.749.685c-.292.153-.637.229-1.035.229-.681 0-1.187-.205-1.517-.616-.33-.41-.495-1.039-.495-1.885v-2.12h-.108c-.229 0-.402-.06-.521-.178-.118-.118-.177-.292-.177-.52 0-.25.059-.428.177-.534.123-.105.333-.158.629-.158h1.193c.115 0 .201.025.26.076.06.046.089.112.089.197v2.951c0 .521.072.887.216 1.099.144.211.381.317.711.317.351 0 .639-.129.863-.387.229-.263.343-.605.343-1.029v-1.834zm7.586 3.085h1.364c.292 0 .498.053.616.159.119.105.178.281.178.526 0 .25-.062.43-.184.54-.119.11-.322.165-.61.165h-4.303c-.284 0-.487-.055-.61-.165-.118-.11-.177-.29-.177-.54 0-.249.057-.425.171-.526.118-.106.324-.159.616-.159h1.364V97.1h-.698c-.288 0-.495-.055-.622-.165-.123-.114-.184-.294-.184-.54 0-.25.061-.429.184-.539.123-.11.33-.165.622-.165h1.898c.119 0 .21.025.273.076a.225.225 0 01.102.197v6.646zm6.588-4.12h1.937c.292 0 .499.053.622.159.122.106.184.281.184.527 0 .25-.064.43-.191.54-.122.11-.328.164-.615.164h-1.937v1.625c0 .457.07.771.21.94.14.169.385.254.736.254.33 0 .72-.095 1.168-.286.449-.19.749-.286.902-.286.173 0 .321.07.444.21.127.135.19.3.19.495 0 .326-.296.624-.888.895-.588.267-1.257.4-2.006.4-.436 0-.819-.059-1.149-.178a1.82 1.82 0 01-.781-.508 1.524 1.524 0 01-.298-.609c-.059-.237-.089-.633-.089-1.187V99.88h-.597c-.287 0-.493-.055-.615-.165-.119-.11-.178-.29-.178-.54 0-.249.059-.424.178-.526.118-.106.323-.159.615-.159h.597v-1.485c0-.292.059-.497.178-.616.122-.118.323-.178.603-.178.279 0 .478.06.596.178.123.119.184.324.184.616v1.485z" fill="#00F"/><path d="M111.075 61.074c.423.13.719.347.888.647.17.296.254.796.254 1.498v.94c0 .44.047.734.14.882.093.148.262.252.508.311.055.013.133.025.235.038.372.05.558.224.558.52a.41.41 0 01-.146.337c-.097.08-.235.12-.412.12-.716 0-1.219-.177-1.511-.532-.292-.356-.438-1.025-.438-2.006v-.737c0-.495-.07-.844-.21-1.047-.139-.207-.482-.358-1.028-.45-.165-.026-.283-.077-.355-.153-.072-.08-.108-.203-.108-.368a.5.5 0 01.089-.318.507.507 0 01.285-.165c.064-.012.155-.034.273-.063.703-.148 1.054-.633 1.054-1.454v-.755c0-.978.148-1.646.444-2.006.296-.36.802-.54 1.517-.54.174 0 .307.043.4.127a.41.41 0 01.146.337c0 .292-.186.461-.558.508a2.376 2.376 0 01-.172.025c-.266.05-.453.157-.558.317-.102.157-.153.464-.153.92v.934c0 .707-.084 1.208-.254 1.504-.169.297-.465.506-.888.629zm102.457 0c-.427-.123-.728-.332-.901-.629-.169-.3-.254-.802-.254-1.504v-.933c0-.449-.047-.75-.14-.902-.093-.156-.258-.264-.495-.323a2.419 2.419 0 00-.247-.038c-.364-.051-.546-.212-.546-.483 0-.16.044-.281.133-.362.089-.084.222-.127.4-.127.715 0 1.221.18 1.517.54.296.36.444 1.028.444 2.006v.755c0 .825.343 1.31 1.029 1.454.131.025.23.046.298.063a.544.544 0 01.292.172c.063.072.095.175.095.31a.537.537 0 01-.101.343.462.462 0 01-.299.166c-.046.008-.112.02-.196.038-.745.144-1.118.634-1.118 1.472v.737c0 .981-.146 1.65-.438 2.006-.292.355-.795.533-1.51.533-.182 0-.32-.043-.413-.127-.089-.08-.133-.203-.133-.368 0-.271.182-.432.546-.483.076-.008.131-.017.165-.025.275-.047.463-.144.565-.292.101-.148.152-.453.152-.914v-.94c0-.694.085-1.191.254-1.492.173-.304.474-.522.901-.653zm279.799 1.377c.038-.14.082-.228.133-.266.051-.038.137-.058.26-.058h1.314c.055 0 .1.013.133.038.038.026.058.058.058.096a.391.391 0 01-.051.165l-1.638 3.409a.387.387 0 01-.114.146.231.231 0 01-.146.044.442.442 0 01-.083-.006.14.14 0 01-.044-.007l-.419-.152a.378.378 0 01-.146-.095.2.2 0 01-.045-.127v-.057l.026-.102.762-3.028zm-.489-3.002c0-.33.114-.601.343-.813.232-.211.533-.317.901-.317.377 0 .681.106.914.317.233.208.349.478.349.813 0 .334-.116.607-.349.819-.233.207-.537.31-.914.31-.372 0-.673-.103-.901-.31-.229-.208-.343-.48-.343-.82zM237.761 96.535c0 .089-.072.282-.216.578-.139.292-.245.525-.317.698a10.483 10.483 0 00-.616 1.847 8.398 8.398 0 00-.177 1.739c0 .555.05 1.092.152 1.613a8.62 8.62 0 00.463 1.549c.106.279.25.607.432.983.186.381.279.616.279.705a.331.331 0 01-.063.216.182.182 0 01-.159.082c-.131 0-.277-.069-.438-.209-.161-.135-.347-.356-.559-.66a7.484 7.484 0 01-1.015-2.038 7.414 7.414 0 01-.337-2.241c0-.715.091-1.396.273-2.044a7.536 7.536 0 01.845-1.891c.245-.402.471-.705.679-.908.207-.203.391-.305.552-.305.068 0 .121.028.159.083.042.05.063.119.063.203zm6.043 4.539c.423.131.72.347.889.647.169.296.254.796.254 1.498v.94c0 .44.046.734.139.882.094.148.263.252.508.311.055.013.134.025.235.038.372.051.559.224.559.521a.412.412 0 01-.146.336c-.098.08-.235.121-.413.121-.715 0-1.219-.178-1.511-.534-.292-.355-.438-1.024-.438-2.005v-.737c0-.495-.069-.844-.209-1.047-.14-.207-.483-.358-1.028-.451-.165-.025-.284-.076-.356-.152-.072-.081-.108-.203-.108-.368a.51.51 0 01.089-.318.512.512 0 01.286-.165c.063-.012.154-.034.273-.063.702-.148 1.053-.633 1.053-1.454v-.755c0-.978.148-1.646.445-2.006.296-.36.802-.54 1.517-.54.173 0 .307.043.4.127.097.08.146.193.146.337 0 .292-.187.461-.559.508a2.446 2.446 0 01-.171.025c-.267.05-.453.157-.559.317-.101.157-.152.464-.152.92v.934c0 .707-.085 1.208-.254 1.504-.169.297-.466.506-.889.629zm10.195-2.558v-.026c0-.14.04-.241.12-.304.081-.068.205-.102.375-.102.173 0 .292.05.355.152.068.102.102.311.102.629v1.18c0 .157-.041.275-.121.356-.08.076-.201.114-.362.114a.486.486 0 01-.298-.095c-.08-.068-.18-.205-.298-.413a2.157 2.157 0 00-.743-.774 1.859 1.859 0 00-.997-.267c-.66 0-1.197.195-1.612.584-.41.39-.616.893-.616 1.511 0 .631.197 1.147.591 1.549.397.398.907.597 1.529.597.284 0 .553-.039.807-.115.258-.08.501-.199.73-.355a4.3 4.3 0 00.323-.235c.275-.224.491-.336.648-.336.131 0 .237.042.317.126a.419.419 0 01.127.318c0 .334-.317.677-.952 1.028a4.112 4.112 0 01-2.012.521c-.919 0-1.685-.294-2.298-.883-.61-.588-.914-1.322-.914-2.202 0-.88.304-1.615.914-2.203.609-.592 1.371-.889 2.285-.889.322 0 .643.045.965.134.326.084.671.218 1.035.4zm3.51 4.589v-6.5h-.121c-.288 0-.486-.034-.596-.102-.106-.067-.159-.186-.159-.355 0-.152.042-.267.127-.343.089-.076.216-.114.381-.114h.964c.115 0 .204.023.267.07.064.046.095.11.095.19v2.876c.309-.288.614-.5.914-.635.305-.14.62-.21.946-.21.639 0 1.141.2 1.505.597.368.398.552.948.552 1.65v2.876h.298c.212 0 .364.036.457.108.093.068.14.178.14.33 0 .152-.043.267-.127.343-.085.076-.212.114-.381.114h-1.688c-.199 0-.335-.032-.407-.095-.067-.068-.101-.189-.101-.362 0-.169.042-.284.127-.343.089-.063.254-.095.495-.095h.222v-2.641c0-.495-.112-.871-.336-1.13-.225-.262-.551-.393-.978-.393a1.68 1.68 0 00-1.149.438 1.4 1.4 0 00-.489 1.085v2.641h.222c.254 0 .426.032.515.095.088.064.133.178.133.343 0 .173-.036.294-.108.362-.068.063-.201.095-.4.095h-1.688c-.165 0-.29-.038-.375-.114-.08-.076-.12-.191-.12-.343 0-.169.048-.284.146-.343.101-.063.296-.095.583-.095h.134zm9.61-6.798c0-.457.04-.745.121-.864.084-.118.262-.177.533-.177.262 0 .436.05.52.152.085.097.127.332.127.705 0 .364-.04.59-.12.679-.076.084-.252.127-.527.127-.271 0-.449-.04-.533-.12-.081-.081-.121-.248-.121-.502zm1.174 6.798h2.038c.165 0 .286.036.362.108.08.068.12.178.12.33 0 .173-.038.294-.114.362-.072.063-.207.095-.406.095h-4.926c-.169 0-.296-.038-.381-.114-.084-.076-.127-.191-.127-.343 0-.148.045-.258.134-.33.089-.072.222-.108.4-.108h1.936v-4.069h-1.238c-.174 0-.307-.038-.4-.114-.089-.08-.133-.195-.133-.343 0-.148.042-.258.127-.33.084-.076.211-.114.38-.114h1.86c.115 0 .203.023.267.07.068.046.101.11.101.19v4.71zm6.792-6.5h-1.079c-.41 0-.668-.032-.774-.095-.102-.068-.152-.189-.152-.362 0-.152.042-.267.127-.343.088-.076.215-.114.38-.114h2.095c.114 0 .203.023.267.07.063.046.095.11.095.19v7.154h1.993c.161 0 .277.036.349.108.076.068.114.178.114.33 0 .173-.035.294-.107.362-.072.063-.208.095-.407.095h-4.684c-.165 0-.292-.038-.381-.114-.085-.076-.127-.191-.127-.343 0-.148.044-.258.133-.33.089-.072.222-.108.4-.108h1.758v-6.5zM285.229 104c-.089 0-.152-.021-.19-.063-.034-.047-.051-.134-.051-.261v-.52a2.611 2.611 0 01-.952.742 2.945 2.945 0 01-1.238.261c-.8 0-1.471-.284-2.012-.851-.538-.571-.807-1.28-.807-2.126 0-.876.288-1.604.864-2.184.575-.584 1.293-.876 2.152-.876.436 0 .827.078 1.174.235.347.152.645.379.895.68v-2.432h-.336c-.369 0-.608-.032-.718-.095-.106-.068-.158-.189-.158-.362 0-.152.042-.267.127-.343.088-.076.215-.114.38-.114h1.302c.127 0 .218.021.273.063.059.043.088.108.088.197v7.154h.286c.207 0 .358.036.451.108.093.068.139.178.139.33 0 .144-.04.256-.12.336a.436.436 0 01-.324.121h-1.225zm-4.158-2.85c0 .584.189 1.062.565 1.434.377.373.855.559 1.435.559.584 0 1.064-.192 1.441-.578.376-.389.565-.882.565-1.479 0-.588-.189-1.072-.565-1.453-.373-.381-.853-.572-1.441-.572-.597 0-1.079.193-1.447.578-.369.385-.553.889-.553 1.511zm9.433 1.955h2.107c.165 0 .286.036.362.108.081.068.121.178.121.33 0 .173-.038.294-.115.362-.071.063-.207.095-.406.095h-4.151c-.165 0-.29-.038-.375-.114-.084-.076-.127-.191-.127-.343 0-.148.043-.258.127-.33.089-.072.225-.108.407-.108h1.104v-4.069h-.432c-.41 0-.666-.032-.768-.095-.101-.068-.152-.188-.152-.362 0-.148.04-.258.121-.33.084-.076.211-.114.381-.114h1.447c.114 0 .201.023.26.07.059.042.089.105.089.19v1.08c.402-.504.821-.879 1.257-1.124a2.823 2.823 0 011.409-.369c.377 0 .681.077.914.229.233.152.349.35.349.59a.585.585 0 01-.178.42.518.518 0 01-.38.177c-.098 0-.263-.063-.496-.19-.228-.132-.433-.197-.615-.197-.33 0-.68.118-1.048.355-.364.233-.768.603-1.212 1.111v2.628zm6.284-1.758c.034.609.239 1.081.616 1.415.381.33.899.495 1.555.495.495 0 1.035-.131 1.619-.393.584-.267.937-.4 1.06-.4.127 0 .232.04.317.12.085.081.127.18.127.299a.496.496 0 01-.133.336 1.399 1.399 0 01-.426.299 6.439 6.439 0 01-1.314.476c-.448.11-.895.165-1.339.165-.965 0-1.737-.277-2.317-.832-.58-.558-.869-1.297-.869-2.215 0-.935.306-1.693.92-2.273.614-.58 1.413-.87 2.399-.87.893 0 1.634.272 2.222.813.588.542.882 1.198.882 1.968 0 .237-.05.396-.152.476-.097.08-.366.121-.806.121h-4.361zm.032-.832h4.132c-.063-.503-.275-.908-.635-1.212-.355-.31-.793-.464-1.314-.464-.562 0-1.036.148-1.421.445-.386.296-.639.706-.762 1.231zm7.56 2.59v-4.069h-.121c-.287 0-.486-.034-.596-.101-.106-.068-.159-.187-.159-.356 0-.156.044-.269.133-.336.089-.072.233-.108.432-.108H304.977c.114 0 .203.023.266.07.064.046.095.11.095.19v.432c.309-.288.614-.5.914-.635.305-.14.62-.21.946-.21.639 0 1.141.2 1.505.597.368.398.552.948.552 1.65v2.876h.298c.212 0 .364.036.457.108.093.068.14.178.14.33 0 .165-.051.283-.152.355-.098.068-.273.102-.527.102h-1.403c-.271 0-.444-.032-.521-.095-.076-.064-.114-.184-.114-.362 0-.165.045-.279.133-.343.089-.063.256-.095.502-.095h.222v-2.641c0-.495-.112-.871-.336-1.13-.225-.262-.551-.393-.978-.393-.432 0-.812.146-1.143.438-.33.292-.495.654-.495 1.085v2.641h.223c.253 0 .425.032.514.095.089.064.133.178.133.343 0 .178-.038.298-.114.362-.076.063-.263.095-.559.095h-1.498c-.173 0-.305-.036-.393-.108-.085-.076-.127-.192-.127-.349 0-.169.048-.284.146-.343.101-.063.296-.095.584-.095h.133zm10.651-2.031c-.427-.123-.728-.332-.901-.629-.169-.3-.254-.802-.254-1.504v-.933c0-.449-.047-.75-.14-.902-.093-.156-.258-.264-.495-.323a2.419 2.419 0 00-.247-.038c-.364-.051-.546-.212-.546-.483 0-.16.044-.281.133-.362.089-.084.222-.127.4-.127.715 0 1.221.18 1.517.54.296.36.444 1.028.444 2.006v.755c0 .825.343 1.31 1.029 1.454a5.8 5.8 0 01.298.063.545.545 0 01.292.172c.064.072.095.175.095.311a.539.539 0 01-.101.343.468.468 0 01-.299.165 8.112 8.112 0 00-.196.038c-.745.144-1.118.634-1.118 1.472v.737c0 .981-.146 1.65-.438 2.005-.292.356-.795.534-1.51.534-.182 0-.32-.043-.413-.127-.089-.081-.133-.203-.133-.368 0-.271.182-.432.546-.483.076-.008.131-.017.165-.025.275-.047.463-.144.565-.292.101-.148.152-.453.152-.914v-.94c0-.694.085-1.191.254-1.491.173-.305.474-.523.901-.654zm6.031 5.173c0-.085.071-.273.215-.565.144-.288.254-.518.33-.692.284-.677.487-1.295.61-1.853a8.129 8.129 0 00.184-1.74c0-.541-.053-1.072-.159-1.593a8.477 8.477 0 00-.47-1.574c-.11-.28-.256-.607-.438-.984-.181-.38-.272-.618-.272-.71 0-.085.021-.153.063-.204a.198.198 0 01.165-.082c.14 0 .288.07.444.209.161.135.347.353.559.654a7.36 7.36 0 011.016 2.037c.224.716.336 1.465.336 2.247 0 .716-.095 1.399-.286 2.051a7.497 7.497 0 01-.844 1.891c-.262.415-.493.72-.692.914-.194.195-.372.292-.533.292a.197.197 0 01-.165-.082.346.346 0 01-.063-.216zm14.066-5.656h5.694c.127 0 .224.043.292.127a.499.499 0 01.108.343c0 .152-.036.269-.108.349-.068.081-.165.121-.292.121h-5.694a.387.387 0 01-.305-.121c-.067-.08-.101-.197-.101-.349 0-.152.034-.269.101-.349a.39.39 0 01.305-.121zm0-2.126h5.694c.127 0 .224.04.292.12.072.08.108.195.108.343 0 .153-.036.269-.108.35-.068.08-.165.12-.292.12h-5.694a.4.4 0 01-.305-.114c-.067-.08-.101-.2-.101-.356 0-.152.034-.266.101-.343a.389.389 0 01.305-.12zm12.346 1.517l-4.64-2.12c-.195-.09-.332-.176-.413-.26a.435.435 0 01-.12-.299c0-.123.036-.22.108-.292a.424.424 0 01.304-.108c.064 0 .134.013.21.038.08.022.18.06.298.115l5.047 2.317.076.038c.381.169.571.36.571.57 0 .208-.186.399-.559.572-.042.017-.071.03-.088.038l-5.047 2.355-.025.013c-.22.097-.381.146-.483.146a.41.41 0 01-.304-.114.426.426 0 01-.108-.305c0-.11.04-.207.12-.292.081-.089.218-.178.413-.267l4.64-2.145zm15.209-3.447c0 .089-.072.282-.216.578-.139.292-.245.525-.317.698a10.483 10.483 0 00-.616 1.847 8.397 8.397 0 00-.178 1.739c0 .555.051 1.092.153 1.613a8.62 8.62 0 00.463 1.549c.106.279.25.607.432.983.186.381.279.616.279.705a.331.331 0 01-.063.216.182.182 0 01-.159.082c-.131 0-.277-.069-.438-.209-.161-.135-.347-.356-.559-.66a7.484 7.484 0 01-1.015-2.038 7.383 7.383 0 01-.337-2.241c0-.715.091-1.396.273-2.044a7.532 7.532 0 01.844-1.891c.246-.402.472-.705.68-.908.207-.203.391-.305.552-.305.068 0 .121.028.159.083.042.05.063.119.063.203zM70.488 119.982l4.653 2.145c.186.089.32.178.4.267.08.085.12.182.12.292a.412.412 0 01-.114.305.4.4 0 01-.305.114.71.71 0 01-.197-.032 2.1 2.1 0 01-.304-.127l-5.047-2.355a.29.29 0 01-.063-.025c-.39-.178-.584-.372-.584-.584 0-.212.19-.402.571-.571l.076-.038 5.047-2.317a1.78 1.78 0 01.292-.115.724.724 0 01.21-.038c.13 0 .232.036.304.108.076.072.114.17.114.292 0 .114-.04.216-.12.305-.08.085-.214.169-.4.254l-4.653 2.12zM82.23 124c-.089 0-.152-.021-.19-.063-.034-.047-.051-.134-.051-.261v-.52a2.612 2.612 0 01-.952.742c-.381.174-.794.261-1.238.261-.8 0-1.47-.284-2.012-.851-.538-.571-.807-1.28-.807-2.126 0-.876.288-1.604.864-2.184.575-.584 1.293-.876 2.152-.876.436 0 .827.078 1.174.235.347.152.645.379.895.679v-2.431h-.337c-.368 0-.607-.032-.717-.095-.106-.068-.159-.189-.159-.362 0-.152.043-.267.128-.343.088-.076.215-.114.38-.114h1.302c.127 0 .218.021.273.063.059.043.088.108.088.197v7.154h.286c.207 0 .358.036.45.108.094.068.14.178.14.33 0 .144-.04.256-.12.336a.435.435 0 01-.324.121h-1.225zm-4.158-2.85c0 .584.189 1.062.565 1.434.377.373.855.559 1.435.559.584 0 1.064-.192 1.44-.578.377-.389.566-.882.566-1.479 0-.588-.189-1.072-.565-1.453-.373-.381-.853-.571-1.441-.571-.597 0-1.08.192-1.447.577-.369.385-.553.889-.553 1.511zm9.47-4.843c0-.457.041-.745.122-.864.084-.118.262-.177.533-.177.262 0 .436.05.52.152.085.097.127.332.127.705 0 .363-.04.59-.12.679-.077.084-.252.127-.527.127-.271 0-.449-.04-.533-.121-.08-.08-.121-.247-.121-.501zm1.175 6.798h2.038c.165 0 .285.036.362.108.08.068.12.178.12.33 0 .173-.038.294-.114.362-.072.063-.207.095-.406.095h-4.926c-.17 0-.296-.038-.38-.114-.086-.076-.128-.191-.128-.343 0-.148.045-.258.133-.33.09-.072.223-.108.4-.108h1.936v-4.069h-1.237c-.174 0-.307-.038-.4-.114a.44.44 0 01-.134-.343c0-.148.043-.258.127-.33.085-.076.212-.114.381-.114h1.86a.44.44 0 01.267.07c.067.046.101.11.101.19v4.71zm4.31-4.069c-.279 0-.472-.034-.577-.101-.102-.068-.153-.187-.153-.356 0-.148.043-.258.127-.33.085-.076.212-.114.381-.114h1.778c.24 0 .401.034.482.101.08.064.12.178.12.343 0 .169-.052.288-.158.356-.106.067-.3.101-.584.101h-.235l1.65 4.107 1.835-4.107h-.381c-.326 0-.546-.032-.66-.095-.114-.068-.172-.188-.172-.362 0-.165.04-.279.121-.343.08-.067.241-.101.483-.101h1.96c.17 0 .297.038.382.114.084.072.127.182.127.33 0 .169-.053.288-.159.356-.102.067-.292.101-.571.101h-.114l-2.095 4.628c-.106.232-.212.383-.318.45-.101.072-.251.108-.45.108-.182 0-.324-.034-.426-.101-.097-.068-.199-.22-.304-.457l-2.089-4.628zm12.41.946l-4.64-2.12a1.384 1.384 0 01-.413-.26.437.437 0 01-.12-.299c0-.122.036-.22.108-.292a.423.423 0 01.304-.108c.064 0 .134.013.21.038.08.022.18.06.298.115l5.046 2.317.077.038c.38.169.571.359.571.571 0 .207-.186.398-.559.571l-.089.038-5.046 2.355-.025.013c-.22.097-.381.146-.483.146a.41.41 0 01-.304-.114.426.426 0 01-.108-.305c0-.11.04-.207.12-.292.081-.089.218-.178.413-.267l4.64-2.145zm-17.786 21.092c.423.131.72.347.888.647.17.296.254.796.254 1.498v.94c0 .44.047.734.14.882.093.148.263.252.508.311.055.013.133.025.235.038.372.051.558.224.558.521a.41.41 0 01-.146.336c-.097.08-.234.121-.412.121-.715 0-1.219-.178-1.511-.534-.292-.355-.438-1.024-.438-2.005v-.737c0-.495-.07-.844-.21-1.047-.14-.207-.482-.358-1.028-.451-.165-.025-.283-.076-.355-.152-.072-.081-.108-.203-.108-.368 0-.136.03-.241.089-.318a.511.511 0 01.285-.165c.064-.012.155-.034.273-.063.703-.148 1.054-.633 1.054-1.454v-.755c0-.978.148-1.646.444-2.006.297-.36.802-.54 1.517-.54.174 0 .307.043.4.127a.414.414 0 01.146.337c0 .292-.186.461-.558.508-.072.012-.13.021-.172.025-.266.051-.452.157-.558.317-.102.157-.153.464-.153.921v.933c0 .707-.084 1.208-.254 1.504-.169.297-.465.506-.888.629zm10.194-2.558v-.026c0-.139.04-.241.12-.304.081-.068.206-.102.375-.102.174 0 .292.051.356.152.067.102.101.311.101.629v1.18c0 .157-.04.275-.12.356-.08.076-.201.114-.362.114a.486.486 0 01-.298-.095c-.08-.068-.18-.205-.299-.413a2.147 2.147 0 00-.742-.774 1.856 1.856 0 00-.997-.267c-.66 0-1.198.195-1.612.584-.41.39-.616.893-.616 1.511 0 .631.197 1.147.59 1.549.398.398.908.597 1.53.597.284 0 .552-.039.806-.115.258-.08.502-.199.73-.355.08-.051.189-.129.324-.235.275-.224.49-.336.647-.336a.42.42 0 01.318.126.42.42 0 01.127.318c0 .334-.318.677-.952 1.028a4.111 4.111 0 01-2.013.521c-.918 0-1.684-.294-2.297-.883-.61-.588-.915-1.322-.915-2.202 0-.88.305-1.615.914-2.203.61-.592 1.372-.889 2.286-.889.321 0 .643.045.965.134.325.084.67.218 1.034.4zm3.51 4.589v-6.5h-.12c-.288 0-.487-.034-.597-.102-.106-.067-.159-.186-.159-.355 0-.152.043-.267.127-.343.089-.076.216-.114.381-.114h.965c.114 0 .203.023.267.07.063.046.095.11.095.19v2.876c.309-.288.614-.5.914-.635.305-.14.62-.21.946-.21.639 0 1.14.199 1.504.597.368.398.552.948.552 1.65v2.876h.299c.211 0 .364.036.457.108.093.068.139.178.139.33 0 .152-.042.267-.126.343-.085.076-.212.114-.381.114h-1.689c-.199 0-.334-.032-.406-.095-.068-.068-.102-.189-.102-.362 0-.169.043-.284.127-.343.089-.063.254-.095.495-.095h.223v-2.641c0-.495-.113-.871-.337-1.13-.224-.262-.55-.393-.977-.393a1.68 1.68 0 00-1.149.438 1.399 1.399 0 00-.489 1.085v2.641h.222c.254 0 .425.032.514.095.089.064.134.178.134.343 0 .173-.036.294-.108.362-.068.063-.201.095-.4.095h-1.689c-.165 0-.29-.038-.374-.114-.081-.076-.121-.191-.121-.343 0-.169.049-.284.146-.343.102-.063.296-.095.584-.095h.133zm9.611-6.798c0-.457.04-.745.12-.864.085-.118.263-.177.534-.177.262 0 .435.05.52.152.085.097.127.332.127.705 0 .363-.04.59-.121.679-.076.084-.251.127-.526.127-.271 0-.449-.04-.534-.121-.08-.08-.12-.247-.12-.501zm1.174 6.798h2.038c.165 0 .285.036.362.108.08.068.12.178.12.33 0 .173-.038.294-.114.362-.072.063-.207.095-.406.095h-4.926c-.169 0-.296-.038-.381-.114-.085-.076-.127-.191-.127-.343 0-.148.044-.258.133-.33.089-.072.222-.108.4-.108h1.936v-4.069h-1.238c-.173 0-.306-.038-.399-.114a.44.44 0 01-.134-.343c0-.148.043-.258.127-.33.085-.076.212-.114.381-.114h1.86c.114 0 .203.023.267.07a.22.22 0 01.101.19v4.71zm6.792-6.5h-1.079c-.41 0-.669-.032-.774-.095-.102-.068-.153-.189-.153-.362 0-.152.043-.267.127-.343.089-.076.216-.114.381-.114h2.095c.114 0 .203.023.266.07.064.046.096.11.096.19v7.154h1.993c.161 0 .277.036.349.108.076.068.114.178.114.33 0 .173-.036.294-.108.362-.072.063-.207.095-.406.095h-4.685c-.165 0-.292-.038-.38-.114-.085-.076-.127-.191-.127-.343 0-.148.044-.258.133-.33.089-.072.222-.108.4-.108h1.758v-6.5zM129.077 144c-.089 0-.153-.021-.191-.063-.034-.047-.051-.134-.051-.261v-.52a2.603 2.603 0 01-.952.742 2.94 2.94 0 01-1.237.261c-.8 0-1.471-.284-2.013-.851-.537-.571-.806-1.28-.806-2.126 0-.876.288-1.604.863-2.184.576-.584 1.293-.876 2.152-.876.436 0 .828.078 1.175.235.347.152.645.379.895.679v-2.431h-.337c-.368 0-.607-.032-.717-.095-.106-.068-.159-.189-.159-.362 0-.152.043-.267.127-.343.089-.076.216-.114.381-.114h1.301c.127 0 .218.021.273.063.059.043.089.108.089.197v7.154h.286c.207 0 .357.036.45.108.094.068.14.178.14.33a.45.45 0 01-.121.336.434.434 0 01-.323.121h-1.225zm-4.158-2.85c0 .584.188 1.062.565 1.434.377.373.855.559 1.434.559.584 0 1.065-.192 1.441-.578.377-.389.565-.882.565-1.479 0-.588-.188-1.072-.565-1.453-.372-.381-.852-.571-1.441-.571-.596 0-1.079.192-1.447.577-.368.385-.552.889-.552 1.511zm9.433 1.955h2.107c.165 0 .286.036.362.108.08.068.12.178.12.33 0 .173-.038.294-.114.362-.072.063-.207.095-.406.095h-4.151c-.166 0-.29-.038-.375-.114-.085-.076-.127-.191-.127-.343 0-.148.042-.258.127-.33.089-.072.224-.108.406-.108h1.105v-4.069h-.432c-.41 0-.666-.032-.768-.095-.102-.068-.152-.188-.152-.362 0-.148.04-.258.12-.33.085-.076.212-.114.381-.114h1.447c.115 0 .201.023.261.07.059.042.089.105.089.19v1.079c.402-.503.821-.878 1.256-1.123a2.822 2.822 0 011.41-.369c.376 0 .681.077.914.229.232.152.349.349.349.59a.585.585 0 01-.178.419.517.517 0 01-.381.178c-.097 0-.262-.064-.495-.19-.228-.132-.434-.197-.616-.197-.33 0-.679.118-1.047.355-.364.233-.768.603-1.212 1.111v2.628zm6.284-1.758c.034.609.239 1.081.615 1.415.381.33.9.495 1.556.495.495 0 1.034-.131 1.618-.393.584-.267.938-.4 1.06-.4.127 0 .233.04.318.12.084.081.127.18.127.299a.497.497 0 01-.134.336 1.38 1.38 0 01-.425.299 6.439 6.439 0 01-1.314.476c-.448.11-.895.165-1.339.165-.965 0-1.737-.277-2.317-.832-.58-.558-.87-1.297-.87-2.215 0-.935.307-1.693.921-2.273.613-.579 1.413-.869 2.399-.869.893 0 1.634.271 2.222.812.588.542.882 1.198.882 1.968 0 .237-.051.396-.152.476-.098.08-.366.121-.806.121h-4.361zm.031-.832h4.133c-.064-.503-.275-.908-.635-1.212-.355-.309-.793-.464-1.314-.464-.563 0-1.037.148-1.422.445-.385.296-.639.706-.762 1.231zm7.561 2.59v-4.069h-.121c-.288 0-.487-.034-.597-.101-.106-.068-.158-.187-.158-.356 0-.156.044-.269.133-.336.089-.072.233-.108.432-.108h.907c.114 0 .203.023.267.07.063.046.095.11.095.19v.432c.309-.288.614-.5.914-.635.305-.14.62-.21.946-.21.639 0 1.14.199 1.504.597.368.398.553.948.553 1.65v2.876h.298c.211 0 .364.036.457.108.093.068.14.178.14.33 0 .165-.051.283-.153.355-.097.068-.273.102-.527.102h-1.402c-.271 0-.445-.032-.521-.095-.076-.064-.114-.184-.114-.362 0-.165.044-.279.133-.343.089-.063.256-.095.502-.095h.222v-2.641c0-.495-.112-.871-.337-1.13-.224-.262-.55-.393-.977-.393-.432 0-.813.146-1.143.438-.33.292-.495.654-.495 1.085v2.641h.222c.254 0 .425.032.514.095.089.064.134.178.134.343 0 .178-.038.298-.115.362-.076.063-.262.095-.558.095h-1.498c-.174 0-.305-.036-.394-.108-.084-.076-.127-.192-.127-.349 0-.169.049-.284.146-.343.102-.063.296-.095.584-.095h.134zm10.651-2.031c-.428-.123-.728-.332-.901-.629-.17-.3-.254-.802-.254-1.504v-.933c0-.449-.047-.749-.14-.902-.093-.156-.258-.264-.495-.323a2.194 2.194 0 00-.248-.038c-.364-.051-.546-.212-.546-.483 0-.161.045-.281.134-.362.089-.084.222-.127.4-.127.715 0 1.22.18 1.517.54.296.36.444 1.028.444 2.006v.755c0 .825.343 1.31 1.028 1.454.132.025.231.046.299.063a.549.549 0 01.292.172c.063.072.095.175.095.311a.533.533 0 01-.102.343.465.465 0 01-.298.165c-.047.008-.112.021-.197.038-.745.144-1.117.634-1.117 1.472v.737c0 .981-.146 1.65-.438 2.005-.292.356-.796.534-1.511.534-.182 0-.319-.043-.412-.127-.089-.081-.134-.203-.134-.368 0-.271.182-.432.546-.483.076-.008.131-.017.165-.025.275-.047.464-.144.565-.292.102-.148.153-.453.153-.914v-.94c0-.694.084-1.191.254-1.491.173-.305.473-.523.901-.654zm-72.776 18.908l4.653 2.145c.186.089.32.178.4.267.08.085.12.182.12.292a.412.412 0 01-.114.305.4.4 0 01-.305.114.71.71 0 01-.196-.032 2.094 2.094 0 01-.305-.127l-5.046-2.355a.29.29 0 01-.064-.025c-.39-.178-.584-.372-.584-.584 0-.212.19-.402.571-.571l.077-.038 5.046-2.317c.114-.055.212-.093.292-.115a.725.725 0 01.21-.038c.13 0 .232.036.304.108.076.072.114.17.114.292 0 .114-.04.216-.12.305-.08.085-.214.169-.4.254l-4.653 2.12zm94.288 4.189c-.093.212-.182.356-.266.432a.411.411 0 01-.292.114.427.427 0 01-.312-.133.416.416 0 01-.114-.432c.013-.042.03-.089.051-.139l3.961-8.538c.106-.22.199-.368.279-.444a.397.397 0 01.292-.121c.127 0 .235.042.324.127a.406.406 0 01.114.419.41.41 0 01-.044.121l-3.993 8.594zm10.931-4.189l-4.64-2.12c-.195-.089-.333-.176-.413-.26a.438.438 0 01-.121-.299c0-.122.036-.22.108-.292a.427.427 0 01.305-.108c.064 0 .133.013.21.038.08.022.179.06.298.115l5.046 2.317.076.038c.381.169.572.359.572.571 0 .207-.187.398-.559.571l-.089.038-5.046 2.355-.026.013c-.22.097-.38.146-.482.146a.414.414 0 01-.305-.114.426.426 0 01-.108-.305c0-.11.041-.207.121-.292.08-.089.218-.178.413-.267l4.64-2.145zm-120.834 20l4.653 2.145c.186.089.32.178.4.267.08.085.12.182.12.292a.412.412 0 01-.114.305.4.4 0 01-.305.114.71.71 0 01-.197-.032 2.1 2.1 0 01-.304-.127l-5.047-2.355a.29.29 0 01-.063-.025c-.39-.178-.584-.372-.584-.584 0-.212.19-.402.571-.571l.076-.038 5.047-2.317a1.78 1.78 0 01.292-.115.724.724 0 01.21-.038c.13 0 .232.036.304.108.076.072.114.17.114.292 0 .114-.04.216-.12.305-.08.085-.214.169-.4.254l-4.653 2.12zm8.404 4.189c-.093.212-.182.356-.266.432a.41.41 0 01-.293.114.425.425 0 01-.31-.133.413.413 0 01-.115-.432c.013-.042.03-.089.051-.139l3.96-8.538c.107-.22.2-.368.28-.444a.396.396 0 01.292-.121.45.45 0 01.324.127.406.406 0 01.114.419.422.422 0 01-.044.121l-3.993 8.594zM90.04 184c-.09 0-.153-.021-.19-.063-.035-.047-.052-.134-.052-.261v-.52a2.612 2.612 0 01-.952.742c-.38.174-.793.261-1.238.261-.8 0-1.47-.284-2.012-.851-.537-.571-.806-1.28-.806-2.126 0-.876.288-1.604.863-2.184.576-.584 1.293-.876 2.152-.876.436 0 .828.078 1.174.235.348.152.646.379.896.679v-2.431h-.337c-.368 0-.607-.032-.717-.095-.106-.068-.159-.189-.159-.362 0-.152.043-.267.127-.343.089-.076.216-.114.38-.114h1.302c.127 0 .218.021.273.063.06.043.089.108.089.197v7.154h.286c.207 0 .357.036.45.108.094.068.14.178.14.33 0 .144-.04.256-.12.336a.435.435 0 01-.324.121h-1.225zm-4.158-2.85c0 .584.188 1.062.565 1.434.376.373.855.559 1.434.559.584 0 1.065-.192 1.441-.578.377-.389.565-.882.565-1.479 0-.588-.188-1.072-.565-1.453-.372-.381-.852-.571-1.44-.571-.597 0-1.08.192-1.448.577-.368.385-.552.889-.552 1.511zm9.47-4.843c0-.457.04-.745.121-.864.085-.118.263-.177.533-.177.263 0 .436.05.52.152.085.097.128.332.128.705 0 .363-.04.59-.12.679-.077.084-.253.127-.528.127-.27 0-.448-.04-.533-.121-.08-.08-.12-.247-.12-.501zm1.175 6.798h2.038c.165 0 .285.036.361.108.08.068.12.178.12.33 0 .173-.037.294-.113.362-.072.063-.208.095-.407.095H93.6c-.17 0-.297-.038-.381-.114-.085-.076-.127-.191-.127-.343 0-.148.044-.258.133-.33.089-.072.222-.108.4-.108h1.936v-4.069h-1.238c-.173 0-.307-.038-.4-.114a.44.44 0 01-.133-.343c0-.148.042-.258.127-.33.085-.076.212-.114.38-.114h1.86a.44.44 0 01.267.07c.068.046.102.11.102.19v4.71zm4.31-4.069c-.279 0-.472-.034-.578-.101-.101-.068-.152-.187-.152-.356 0-.148.042-.258.127-.33.085-.076.211-.114.381-.114h1.777c.241 0 .402.034.483.101.08.064.12.178.12.343 0 .169-.053.288-.159.356-.105.067-.3.101-.584.101h-.234l1.65 4.107 1.834-4.107h-.38c-.326 0-.546-.032-.661-.095-.114-.068-.171-.188-.171-.362 0-.165.04-.279.121-.343.08-.067.241-.101.482-.101h1.962c.169 0 .296.038.38.114.085.072.127.182.127.33 0 .169-.053.288-.158.356-.102.067-.292.101-.572.101h-.114l-2.095 4.628c-.105.232-.211.383-.317.45-.102.072-.252.108-.451.108-.182 0-.323-.034-.425-.101-.097-.068-.199-.22-.305-.457l-2.088-4.628zm12.41.946l-4.641-2.12c-.194-.089-.332-.176-.412-.26a.433.433 0 01-.121-.299c0-.122.036-.22.108-.292a.426.426 0 01.305-.108c.063 0 .133.013.209.038.081.022.18.06.299.115l5.046 2.317.076.038c.381.169.572.359.572.571 0 .207-.187.398-.559.571l-.089.038-5.046 2.355-.026.013c-.22.097-.381.146-.482.146a.413.413 0 01-.305-.114.426.426 0 01-.108-.305c0-.11.04-.207.121-.292.08-.089.218-.178.412-.267l4.641-2.145zm-57.643 26.265c0-.085.072-.273.215-.565.144-.288.254-.518.33-.692.284-.677.487-1.295.61-1.853a8.148 8.148 0 00.025-3.333 8.55 8.55 0 00-.47-1.574c-.11-.279-.256-.607-.438-.984-.181-.381-.273-.618-.273-.711 0-.084.022-.152.064-.203a.198.198 0 01.165-.082c.14 0 .288.069.444.209.161.135.347.353.559.654a7.342 7.342 0 011.016 2.037c.224.716.336 1.465.336 2.247 0 .716-.095 1.399-.286 2.051a7.52 7.52 0 01-.844 1.891c-.262.415-.493.72-.692.914-.194.195-.372.292-.533.292a.198.198 0 01-.165-.082.345.345 0 01-.063-.216zm8.309-3.796c.038-.139.082-.228.133-.266.05-.039.138-.058.26-.058h1.314c.055 0 .1.013.133.039.038.025.058.057.058.095a.393.393 0 01-.05.165l-1.639 3.408a.375.375 0 01-.114.146.229.229 0 01-.146.045.46.46 0 01-.083-.006.147.147 0 01-.044-.007l-.42-.152a.39.39 0 01-.145-.095.203.203 0 01-.044-.127v-.057a1.61 1.61 0 01.025-.102l.762-3.028zm-.49-3.002c0-.33.115-.601.344-.813.232-.211.533-.317.901-.317.377 0 .681.106.914.317.233.208.35.478.35.813 0 .334-.117.607-.35.819-.233.207-.537.311-.914.311-.372 0-.673-.104-.901-.311-.229-.208-.343-.481-.343-.819z" fill="#000"/><path d="M129.172 56.681a.448.448 0 01.178-.241.638.638 0 01.33-.07c.156 0 .266.038.33.114.063.076.095.233.095.47a46.727 46.727 0 00.025 1.625c0 .199-.033.334-.101.406-.068.068-.189.102-.362.102-.279 0-.461-.199-.546-.597l-.07-.273c-.08-.317-.273-.575-.577-.774a1.89 1.89 0 00-1.073-.305c-.749 0-1.35.275-1.803.825-.453.546-.679 1.28-.679 2.203 0 .923.228 1.659.685 2.209.462.546 1.069.819 1.822.819.246 0 .495-.034.749-.102.254-.072.504-.177.749-.317.115-.06.271-.159.47-.298.199-.144.341-.216.425-.216.132 0 .242.044.33.133.094.085.14.19.14.317s-.051.25-.152.369c-.098.114-.282.256-.553.425a4.21 4.21 0 01-1.072.514c-.36.11-.739.165-1.137.165-1.045 0-1.908-.368-2.589-1.104-.682-.741-1.022-1.687-1.022-2.838 0-1.138.345-2.084 1.034-2.837.69-.754 1.558-1.13 2.603-1.13.279 0 .563.034.85.102.292.067.599.169.921.304zm3.415 6.424v-6.5h-.121c-.287 0-.486-.034-.596-.102-.106-.067-.159-.186-.159-.355 0-.152.042-.267.127-.343.089-.076.216-.114.381-.114h.965c.114 0 .203.023.266.07.064.046.095.11.095.19v2.876c.309-.288.614-.5.914-.635.305-.14.62-.21.946-.21.639 0 1.141.2 1.505.597.368.398.552.948.552 1.65v2.876h.298c.212 0 .364.036.457.108.093.068.14.178.14.33 0 .152-.042.267-.127.343-.085.076-.212.114-.381.114h-1.688c-.199 0-.335-.032-.407-.095-.067-.068-.101-.188-.101-.362 0-.17.042-.284.127-.343.089-.063.254-.095.495-.095h.222v-2.64c0-.496-.112-.872-.336-1.13-.225-.263-.55-.394-.978-.394a1.68 1.68 0 00-1.149.438 1.399 1.399 0 00-.489 1.085v2.641h.223c.253 0 .425.032.514.095.089.064.133.178.133.343 0 .174-.036.294-.108.362-.068.063-.201.095-.4.095h-1.688c-.165 0-.29-.038-.375-.114-.08-.076-.12-.19-.12-.343 0-.17.048-.284.146-.343.101-.063.296-.095.584-.095h.133zm11.603-1.91a4.268 4.268 0 00-.679-.166 3.712 3.712 0 00-.647-.057c-.652 0-1.166.11-1.543.33-.376.22-.565.517-.565.889 0 .288.117.525.349.71.237.187.538.28.902.28a2.81 2.81 0 001.492-.419c.461-.283.691-.577.691-.882v-.686zm.051 1.999a3.814 3.814 0 01-1.136.717 3.307 3.307 0 01-1.257.248c-.63 0-1.14-.176-1.53-.527-.385-.351-.577-.808-.577-1.371 0-.669.256-1.187.768-1.555.516-.369 1.24-.553 2.171-.553.245 0 .493.017.742.051.25.03.506.078.768.146v-.044c0-.487-.116-.847-.349-1.08-.232-.232-.594-.349-1.085-.349-.33 0-.698.09-1.105.267-.406.178-.675.267-.806.267a.376.376 0 01-.304-.146.601.601 0 01-.121-.388c0-.25.233-.46.698-.634.47-.174 1.069-.26 1.797-.26.744 0 1.307.19 1.688.57.381.377.571.936.571 1.677v2.875h.311c.301 0 .502.032.603.095.102.064.153.178.153.343 0 .152-.043.267-.127.343-.085.076-.212.114-.381.114h-.997a.41.41 0 01-.292-.108.553.553 0 01-.152-.31l-.051-.388zm8.081-4.704c.207 0 .357.036.45.108.098.072.146.186.146.343 0 .148-.044.26-.133.336-.089.072-.222.108-.4.108h-2.571v2.12c0 .694.089 1.151.267 1.371.182.22.491.33.927.33.385 0 .846-.112 1.384-.336.537-.224.869-.336.996-.336.119 0 .218.042.299.127a.425.425 0 01.126.31c0 .14-.052.263-.158.369-.102.101-.277.2-.527.298a7.722 7.722 0 01-1.124.362c-.33.076-.641.114-.933.114-.495 0-.912-.078-1.25-.235a1.605 1.605 0 01-.749-.71 1.67 1.67 0 01-.184-.527 6.247 6.247 0 01-.051-.94v-2.317h-1.079c-.178 0-.307-.034-.387-.101-.081-.072-.121-.187-.121-.343 0-.174.055-.292.165-.356.11-.063.345-.095.705-.095h.717v-1.638c0-.181.038-.315.114-.4.081-.088.203-.133.368-.133.187 0 .316.053.388.159.071.106.107.347.107.724v1.288h2.508zm4.437 3.885l1.092-3.796c.038-.135.08-.22.127-.254.05-.038.139-.057.266-.057h.286c.123 0 .209.02.26.057.055.038.102.114.14.229l1.237 3.821.623-5.046h-.997c-.195 0-.339-.034-.432-.102-.089-.068-.133-.176-.133-.324 0-.16.042-.273.127-.336.089-.064.252-.095.489-.095h2.05a.32.32 0 01.248.127.44.44 0 01.108.304c0 .144-.041.252-.121.324-.08.068-.201.102-.362.102h-.076l-.901 6.347c-.013.131-.039.218-.077.26-.033.043-.091.064-.171.064h-.451a.367.367 0 01-.222-.057.459.459 0 01-.133-.216l-1.378-4.367-1.218 4.38c-.03.105-.068.175-.115.21-.046.033-.122.05-.228.05h-.476c-.085 0-.148-.019-.191-.057-.038-.042-.065-.136-.082-.28l-.965-6.334h-.076c-.165 0-.29-.036-.375-.108-.08-.072-.12-.178-.12-.318a.47.47 0 01.101-.31.314.314 0 01.248-.121h2.056c.233 0 .392.031.477.095.088.063.133.175.133.336 0 .148-.047.256-.14.324-.089.068-.228.102-.419.102h-.895l.686 5.046zm8.861-6.068c0-.457.04-.745.121-.864.084-.118.262-.177.533-.177.262 0 .436.05.52.152.085.097.127.332.127.705 0 .364-.04.59-.12.679-.076.084-.252.127-.527.127-.271 0-.449-.04-.533-.12-.081-.081-.121-.248-.121-.502zm1.174 6.798h2.038c.165 0 .286.036.362.108.08.068.12.178.12.33 0 .174-.038.294-.114.362-.072.063-.207.095-.406.095h-4.926c-.169 0-.296-.038-.381-.114-.084-.076-.127-.19-.127-.343 0-.148.045-.258.134-.33.089-.072.222-.108.4-.108h1.936v-4.069h-1.238c-.174 0-.307-.038-.4-.114-.089-.08-.133-.195-.133-.343 0-.148.042-.258.127-.33.084-.076.211-.114.38-.114h1.86c.115 0 .203.023.267.07.068.046.101.11.101.19v4.71zm9.128.895c-.089 0-.152-.021-.19-.063-.034-.047-.051-.134-.051-.26v-.521a2.617 2.617 0 01-.952.742 2.95 2.95 0 01-1.238.26c-.8 0-1.47-.283-2.012-.85-.537-.571-.806-1.28-.806-2.126 0-.876.288-1.604.863-2.184.576-.584 1.293-.876 2.152-.876.436 0 .827.078 1.174.235.347.152.646.379.895.68v-2.432h-.336c-.368 0-.607-.032-.717-.095-.106-.068-.159-.188-.159-.362 0-.152.042-.267.127-.343.089-.076.216-.114.381-.114h1.301c.127 0 .218.021.273.063.059.043.089.108.089.197v7.154h.285c.208 0 .358.036.451.108.093.068.14.178.14.33 0 .144-.04.256-.121.336a.437.437 0 01-.324.121h-1.225zm-4.157-2.85c0 .584.188 1.062.565 1.434.376.373.854.56 1.434.56.584 0 1.064-.194 1.441-.579.377-.389.565-.882.565-1.479 0-.588-.188-1.072-.565-1.453-.372-.381-.853-.572-1.441-.572-.597 0-1.079.193-1.447.578-.368.385-.552.889-.552 1.51zm9.877-2.076c-.555 0-1.008.172-1.359.514-.351.343-.527.788-.527 1.333 0 .538.176.98.527 1.327.351.343.804.514 1.359.514.55 0 1-.171 1.352-.514.355-.347.533-.79.533-1.327 0-.537-.178-.98-.533-1.326-.352-.347-.802-.52-1.352-.52zm2.754 4.59c0 .592-.029 1.011-.088 1.256-.06.25-.161.468-.305.654-.237.313-.569.55-.997.711-.427.165-.931.248-1.51.248-.483 0-.836-.047-1.06-.14-.221-.093-.331-.241-.331-.444 0-.132.053-.248.159-.35a.566.566 0 01.387-.145c.115 0 .29.014.527.044.237.034.417.05.54.05.626 0 1.07-.143 1.333-.43.262-.289.393-.782.393-1.48v-.768c-.258.3-.543.52-.857.66-.313.14-.672.21-1.079.21-.791 0-1.447-.263-1.967-.787-.517-.53-.775-1.198-.775-2.006 0-.813.267-1.486.8-2.019.533-.537 1.193-.806 1.98-.806.326 0 .644.061.953.184.313.119.628.3.945.546v-.457c0-.089.028-.154.083-.197.059-.042.15-.063.273-.063h.958c.17 0 .297.038.381.114.085.072.127.182.127.33 0 .17-.053.288-.159.356-.105.067-.304.101-.596.101h-.115v4.628zm3.085-2.317c.034.61.24 1.08.616 1.415.381.33.899.495 1.555.495.495 0 1.035-.13 1.619-.393.584-.267.937-.4 1.06-.4a.44.44 0 01.317.12c.085.08.127.18.127.299a.498.498 0 01-.133.336 1.401 1.401 0 01-.425.299 6.427 6.427 0 01-1.314.476 5.61 5.61 0 01-1.34.165c-.964 0-1.737-.278-2.316-.832-.58-.558-.87-1.297-.87-2.215 0-.935.307-1.693.92-2.273.614-.58 1.414-.87 2.4-.87.893 0 1.633.272 2.221.813.589.542.883 1.198.883 1.968 0 .237-.051.396-.153.476-.097.08-.366.12-.806.12h-4.361zm.032-.832h4.133c-.064-.503-.276-.908-.635-1.212-.356-.31-.794-.464-1.314-.464-.563 0-1.037.148-1.422.445-.385.296-.639.706-.762 1.231zm11.654-2.025c.208 0 .358.036.451.108.097.072.146.186.146.343 0 .148-.044.26-.133.336-.089.072-.222.108-.4.108h-2.571v2.12c0 .694.089 1.151.267 1.371.182.22.491.33.927.33.385 0 .846-.112 1.383-.336.538-.224.87-.336.997-.336.118 0 .218.042.298.127a.422.422 0 01.127.31c0 .14-.053.263-.159.369-.101.101-.277.2-.526.298a7.76 7.76 0 01-1.124.362c-.33.076-.641.114-.933.114-.495 0-.912-.078-1.25-.235a1.612 1.612 0 01-.75-.71 1.695 1.695 0 01-.184-.527 6.417 6.417 0 01-.05-.94v-2.317h-1.079c-.178 0-.307-.034-.388-.101-.08-.072-.12-.187-.12-.343 0-.174.055-.292.165-.356.11-.063.345-.095.704-.095h.718v-1.638c0-.181.038-.315.114-.4.08-.088.203-.133.368-.133.186 0 .315.053.387.159.072.106.108.347.108.724v1.288h2.507zm-26.793 43.885l1.092-3.796c.038-.135.08-.22.127-.254.051-.038.139-.057.266-.057h.286c.123 0 .209.02.26.057.055.038.102.114.14.229l1.238 3.821.622-5.046h-.997c-.194 0-.338-.034-.431-.102-.089-.068-.134-.176-.134-.324 0-.16.043-.273.127-.336.089-.064.252-.095.489-.095h2.05a.32.32 0 01.248.127.44.44 0 01.108.304c0 .144-.04.252-.121.324-.08.068-.201.102-.362.102h-.076l-.901 6.347c-.013.131-.038.218-.076.261-.034.042-.091.063-.172.063h-.45a.369.369 0 01-.223-.057.466.466 0 01-.133-.216l-1.377-4.367-1.219 4.38c-.03.106-.068.175-.114.209-.047.034-.123.051-.229.051h-.476c-.085 0-.148-.019-.19-.057-.038-.042-.066-.136-.083-.279l-.965-6.335h-.076c-.165 0-.29-.036-.374-.108-.081-.072-.121-.178-.121-.318 0-.127.034-.23.102-.31a.31.31 0 01.247-.121h2.057c.232 0 .391.031.476.095.089.063.133.176.133.336 0 .148-.046.256-.14.324-.088.068-.228.102-.419.102h-.895l.686 5.046zm8.823.73h2.108c.165 0 .285.036.362.108.08.068.12.178.12.33 0 .173-.038.294-.114.362-.072.063-.208.095-.406.095h-4.152c-.165 0-.29-.038-.374-.114-.085-.076-.127-.191-.127-.343 0-.148.042-.258.127-.33.089-.072.224-.108.406-.108h1.104v-4.069h-.431c-.411 0-.667-.032-.768-.095-.102-.068-.153-.188-.153-.362 0-.148.041-.258.121-.33.085-.076.212-.114.381-.114h1.447c.114 0 .201.023.26.07.06.042.089.105.089.19v1.08c.402-.504.821-.879 1.257-1.124a2.826 2.826 0 011.409-.369c.377 0 .682.077.914.229.233.152.349.35.349.59a.588.588 0 01-.177.42.52.52 0 01-.381.177c-.097 0-.262-.063-.495-.19-.229-.132-.434-.197-.616-.197-.33 0-.679.118-1.047.355-.364.233-.768.603-1.213 1.111v2.628zm9.839-1.911a4.317 4.317 0 00-.679-.165 3.733 3.733 0 00-.648-.057c-.651 0-1.165.11-1.542.33-.377.22-.565.517-.565.889a.87.87 0 00.349.711c.237.186.538.279.902.279a2.8 2.8 0 001.491-.419c.462-.283.692-.577.692-.882v-.686zm.051 2a3.817 3.817 0 01-1.136.717 3.317 3.317 0 01-1.257.248c-.631 0-1.141-.176-1.53-.527-.385-.351-.578-.808-.578-1.371 0-.669.256-1.187.768-1.555.517-.369 1.24-.553 2.171-.553.246 0 .493.017.743.051.25.03.506.078.768.146v-.044c0-.487-.116-.847-.349-1.08-.233-.232-.595-.349-1.085-.349-.331 0-.699.09-1.105.267-.406.178-.675.267-.806.267a.38.38 0 01-.305-.146.607.607 0 01-.12-.388c0-.25.232-.46.698-.634.47-.174 1.068-.26 1.796-.26.745 0 1.308.19 1.689.57.381.377.571.936.571 1.676v2.876h.311c.301 0 .502.032.603.095.102.064.152.178.152.343 0 .152-.042.267-.127.343-.084.076-.211.114-.38.114h-.997a.408.408 0 01-.292-.108.554.554 0 01-.152-.311l-.051-.387zm4.71 2.431h1.523c.161 0 .282.038.362.114.081.076.121.191.121.343 0 .165-.04.281-.121.349-.076.068-.214.102-.412.102h-2.8c-.169 0-.298-.038-.387-.115-.085-.076-.127-.188-.127-.336 0-.169.053-.288.159-.355.11-.068.311-.102.603-.102h.12v-6.589h-.12c-.292 0-.493-.034-.603-.101-.106-.068-.159-.187-.159-.356 0-.148.042-.258.127-.33.089-.076.218-.114.387-.114h.965c.127 0 .218.02.273.063.059.043.089.108.089.197v.616a2.93 2.93 0 01.952-.667 2.878 2.878 0 011.13-.222c.85 0 1.561.288 2.133.863.571.576.857 1.297.857 2.165 0 .834-.271 1.519-.813 2.057-.542.537-1.233.806-2.076.806a3.2 3.2 0 01-1.237-.235 2.53 2.53 0 01-.946-.686v2.533zm1.968-2.545c.588 0 1.07-.184 1.447-.553.377-.372.565-.852.565-1.441 0-.575-.191-1.049-.571-1.421-.377-.377-.857-.565-1.441-.565-.584 0-1.063.186-1.435.558-.372.373-.559.849-.559 1.428 0 .584.185 1.063.553 1.435.372.372.852.559 1.441.559zm5.839 2.545h1.524c.161 0 .281.038.362.114.08.076.12.191.12.343 0 .165-.04.281-.12.349-.076.068-.214.102-.413.102h-2.799c-.169 0-.299-.038-.387-.115-.085-.076-.127-.188-.127-.336 0-.169.053-.288.158-.355.11-.068.311-.102.603-.102h.121v-6.589h-.121c-.292 0-.493-.034-.603-.101-.105-.068-.158-.187-.158-.356 0-.148.042-.258.127-.33.088-.076.218-.114.387-.114h.965c.127 0 .218.02.273.063.059.043.088.108.088.197v.616c.288-.296.606-.519.953-.667a2.878 2.878 0 011.13-.222c.85 0 1.561.288 2.132.863.572.576.857 1.297.857 2.165 0 .834-.271 1.519-.812 2.057-.542.537-1.234.806-2.076.806-.448 0-.861-.079-1.238-.235a2.539 2.539 0 01-.946-.686v2.533zm1.968-2.545c.588 0 1.071-.184 1.448-.553.376-.372.564-.852.564-1.441 0-.575-.19-1.049-.571-1.421-.376-.377-.857-.565-1.441-.565-.584 0-1.062.186-1.434.558-.373.373-.559.849-.559 1.428 0 .584.184 1.063.552 1.435.373.372.853.559 1.441.559zm5.332-1.733c.034.609.239 1.081.616 1.415.381.33.899.495 1.555.495.495 0 1.035-.131 1.619-.393.584-.267.937-.4 1.06-.4.127 0 .233.04.317.12.085.081.127.18.127.299a.496.496 0 01-.133.336 1.405 1.405 0 01-.425.299 6.482 6.482 0 01-1.314.476 5.61 5.61 0 01-1.34.165c-.965 0-1.737-.277-2.317-.832-.579-.558-.869-1.297-.869-2.215 0-.935.307-1.693.92-2.273.614-.58 1.414-.87 2.4-.87.893 0 1.633.272 2.221.813.589.542.883 1.198.883 1.968 0 .237-.051.396-.153.476-.097.08-.366.121-.806.121h-4.361zm.032-.832h4.132c-.063-.503-.275-.908-.634-1.212-.356-.31-.794-.464-1.314-.464-.563 0-1.037.148-1.422.445-.385.296-.639.706-.762 1.231zm9.299 2.59h2.108c.165 0 .285.036.362.108.08.068.12.178.12.33 0 .173-.038.294-.114.362-.072.063-.207.095-.406.095h-4.152c-.165 0-.29-.038-.374-.114-.085-.076-.127-.191-.127-.343 0-.148.042-.258.127-.33.089-.072.224-.108.406-.108h1.105v-4.069h-.432c-.411 0-.667-.032-.768-.095-.102-.068-.152-.188-.152-.362 0-.148.04-.258.12-.33.085-.076.212-.114.381-.114h1.447c.114 0 .201.023.26.07.06.042.089.105.089.19v1.08c.402-.504.821-.879 1.257-1.124a2.826 2.826 0 011.409-.369c.377 0 .682.077.914.229.233.152.35.35.35.59a.59.59 0 01-.178.42.519.519 0 01-.381.177c-.097 0-.262-.063-.495-.19-.229-.132-.434-.197-.616-.197-.33 0-.679.118-1.047.355-.364.233-.768.603-1.213 1.111v2.628zM97.941 156.681a.452.452 0 01.178-.241.634.634 0 01.33-.07c.157 0 .267.038.33.114.064.077.096.233.096.47a49.402 49.402 0 00.025 1.625c0 .199-.034.334-.102.406-.067.068-.188.102-.362.102-.279 0-.46-.199-.545-.597a24.15 24.15 0 00-.07-.273c-.08-.317-.273-.575-.578-.774a1.89 1.89 0 00-1.073-.305c-.749 0-1.35.275-1.802.825-.453.546-.68 1.28-.68 2.203 0 .923.229 1.659.686 2.209.461.546 1.069.819 1.822.819.245 0 .495-.034.749-.102.254-.072.503-.177.749-.317.114-.059.27-.159.47-.298.198-.144.34-.216.425-.216.131 0 .241.044.33.133a.41.41 0 01.14.317c0 .127-.051.25-.153.369-.097.114-.281.256-.552.425a4.2 4.2 0 01-1.073.514c-.36.11-.738.165-1.136.165-1.045 0-1.908-.368-2.59-1.104-.681-.741-1.022-1.687-1.022-2.838 0-1.138.345-2.084 1.035-2.837.69-.753 1.557-1.13 2.602-1.13.28 0 .563.034.851.101.292.068.599.17.92.305zm3.415 6.424v-6.5h-.12c-.288 0-.487-.034-.597-.102-.106-.067-.159-.186-.159-.355 0-.152.043-.267.127-.343.089-.076.216-.114.381-.114h.965c.114 0 .203.023.267.07.063.046.095.11.095.19v2.876c.309-.288.614-.5.914-.635.305-.14.62-.21.946-.21.639 0 1.14.199 1.504.597.368.398.552.948.552 1.65v2.876h.299c.211 0 .364.036.457.108.093.068.139.178.139.33 0 .152-.042.267-.126.343-.085.076-.212.114-.381.114h-1.689c-.199 0-.334-.032-.406-.095-.068-.068-.102-.189-.102-.362 0-.169.043-.284.127-.343.089-.063.254-.095.495-.095h.223v-2.641c0-.495-.113-.871-.337-1.13-.224-.262-.55-.393-.977-.393a1.68 1.68 0 00-1.149.438 1.399 1.399 0 00-.489 1.085v2.641h.222c.254 0 .425.032.514.095.089.064.134.178.134.343 0 .173-.036.294-.108.362-.068.063-.201.095-.4.095h-1.689c-.165 0-.29-.038-.374-.114-.081-.076-.121-.191-.121-.343 0-.169.049-.284.146-.343.102-.063.296-.095.584-.095h.133zm11.604-1.911a4.317 4.317 0 00-.679-.165 3.733 3.733 0 00-.648-.057c-.651 0-1.166.11-1.542.33-.377.22-.565.517-.565.889a.87.87 0 00.349.711c.237.186.537.279.901.279.538 0 1.035-.139 1.492-.419.461-.283.692-.577.692-.882v-.686zm.051 2a3.817 3.817 0 01-1.136.717 3.317 3.317 0 01-1.257.248c-.631 0-1.141-.176-1.53-.527-.385-.351-.578-.808-.578-1.371 0-.669.256-1.187.768-1.555.517-.369 1.24-.553 2.171-.553.246 0 .493.017.743.051.25.03.506.078.768.146v-.044c0-.487-.116-.847-.349-1.079-.233-.233-.595-.35-1.086-.35-.33 0-.698.089-1.104.267-.406.178-.675.267-.806.267a.38.38 0 01-.305-.146.61.61 0 01-.121-.388c0-.249.233-.461.699-.634.469-.174 1.068-.261 1.796-.261.745 0 1.308.191 1.689.572.38.376.571.935.571 1.675v2.876h.311c.3 0 .501.032.603.095.101.064.152.178.152.343 0 .152-.042.267-.127.343-.084.076-.211.114-.381.114h-.996a.407.407 0 01-.292-.108.554.554 0 01-.152-.311l-.051-.387zm8.08-4.704c.208 0 .358.036.451.108.097.072.146.186.146.343 0 .148-.044.26-.133.336-.089.072-.222.108-.4.108h-2.571v2.12c0 .694.089 1.151.267 1.371.182.221.49.331.926.331.385 0 .847-.113 1.384-.337.538-.224.87-.336.997-.336.118 0 .218.042.298.127a.42.42 0 01.127.311.506.506 0 01-.159.368c-.101.101-.277.201-.527.298a7.691 7.691 0 01-1.123.362c-.33.076-.641.114-.933.114-.495 0-.912-.078-1.251-.235a1.601 1.601 0 01-.749-.711 1.688 1.688 0 01-.184-.526 6.264 6.264 0 01-.051-.94v-2.317h-1.079c-.177 0-.306-.034-.387-.101-.08-.072-.12-.187-.12-.343 0-.174.055-.292.165-.356.11-.063.344-.095.704-.095h.717v-1.637c0-.182.039-.316.115-.4.08-.089.203-.134.368-.134.186 0 .315.053.387.159.072.106.108.347.108.724v1.288h2.507zm4.437 3.885l1.092-3.796c.038-.135.081-.22.127-.254.051-.038.14-.057.267-.057h.285c.123 0 .21.019.261.057.055.038.101.114.139.229l1.238 3.821.622-5.046h-.997c-.194 0-.338-.034-.431-.102-.089-.068-.133-.176-.133-.324 0-.16.042-.273.127-.336.088-.064.251-.095.488-.095h2.051c.093 0 .175.042.247.127.072.08.108.182.108.304 0 .144-.04.252-.121.324-.08.068-.201.102-.361.102h-.077l-.901 6.347c-.013.131-.038.218-.076.261-.034.042-.091.063-.171.063h-.451a.365.365 0 01-.222-.057.458.458 0 01-.134-.216l-1.377-4.367-1.219 4.38c-.029.106-.068.175-.114.209-.047.034-.123.051-.229.051h-.476c-.084 0-.148-.019-.19-.057-.038-.042-.066-.136-.083-.279l-.964-6.335h-.077c-.165 0-.29-.036-.374-.108-.081-.072-.121-.178-.121-.318 0-.127.034-.23.102-.311.068-.08.15-.12.247-.12h2.057c.233 0 .391.031.476.095.089.063.133.176.133.336 0 .148-.046.256-.139.324-.089.068-.229.102-.419.102h-.895l.685 5.046zm8.862-6.068c0-.457.04-.745.12-.864.085-.118.263-.177.533-.177.263 0 .436.05.521.152.085.097.127.332.127.705 0 .363-.04.59-.121.679-.076.084-.251.127-.527.127-.27 0-.448-.04-.533-.121-.08-.08-.12-.247-.12-.501zm1.174 6.798h2.038c.165 0 .285.036.361.108.081.068.121.178.121.33 0 .173-.038.294-.114.362-.072.063-.208.095-.407.095h-4.925c-.17 0-.297-.038-.381-.114-.085-.076-.127-.191-.127-.343 0-.148.044-.258.133-.33.089-.072.222-.108.4-.108h1.936v-4.069h-1.238c-.173 0-.306-.038-.4-.114a.443.443 0 01-.133-.343c0-.148.042-.258.127-.33.085-.076.212-.114.381-.114h1.86c.114 0 .203.023.266.07.068.046.102.11.102.19v4.71zm9.128.895c-.089 0-.152-.021-.191-.063-.033-.047-.05-.134-.05-.261v-.52a2.62 2.62 0 01-.952.742 2.945 2.945 0 01-1.238.261c-.8 0-1.471-.284-2.012-.851-.538-.571-.807-1.28-.807-2.126 0-.876.288-1.604.864-2.184.575-.584 1.292-.876 2.152-.876.435 0 .827.078 1.174.235.347.152.645.379.895.679v-2.431h-.337c-.368 0-.607-.032-.717-.095-.106-.068-.159-.189-.159-.362 0-.152.043-.267.127-.343.089-.076.216-.114.381-.114h1.302c.126 0 .217.021.272.063.06.043.089.108.089.197v7.154h.286c.207 0 .358.036.451.108.093.068.139.178.139.33 0 .144-.04.256-.12.336a.438.438 0 01-.324.121h-1.225zm-4.158-2.85c0 .584.188 1.062.565 1.434.377.373.855.559 1.435.559.584 0 1.064-.192 1.441-.578.376-.389.565-.882.565-1.479 0-.588-.189-1.072-.565-1.453-.373-.381-.853-.571-1.441-.571-.597 0-1.079.192-1.448.577-.368.385-.552.889-.552 1.511zm9.877-2.076c-.554 0-1.007.172-1.358.514-.352.343-.527.787-.527 1.333 0 .538.175.98.527 1.327.351.343.804.514 1.358.514.55 0 1.001-.171 1.352-.514.356-.347.533-.789.533-1.327 0-.537-.177-.979-.533-1.326-.351-.347-.802-.521-1.352-.521zm2.755 4.59c0 .592-.03 1.011-.089 1.256-.059.25-.161.468-.305.654-.237.313-.569.55-.996.711-.428.165-.931.248-1.511.248-.482 0-.836-.047-1.06-.14-.22-.093-.33-.241-.33-.444a.47.47 0 01.159-.349.562.562 0 01.387-.146c.114 0 .29.014.527.044.237.034.417.051.539.051.627 0 1.071-.144 1.333-.432.263-.288.394-.781.394-1.479v-.768a2.436 2.436 0 01-.857.66 2.62 2.62 0 01-1.079.21c-.792 0-1.447-.263-1.968-.787-.516-.529-.774-1.198-.774-2.006 0-.813.266-1.486.799-2.019.534-.537 1.194-.806 1.981-.806.326 0 .643.061.952.184.313.119.628.301.946.546v-.457c0-.089.027-.154.082-.197a.479.479 0 01.273-.063h.959c.169 0 .296.038.381.114.084.072.127.182.127.33 0 .169-.053.288-.159.356-.106.067-.305.101-.597.101h-.114v4.628zm3.085-2.317c.034.609.239 1.081.616 1.415.381.33.899.495 1.555.495.495 0 1.035-.131 1.619-.393.584-.267.937-.4 1.06-.4.127 0 .232.04.317.12.085.081.127.18.127.299a.5.5 0 01-.133.336 1.399 1.399 0 01-.426.299 6.439 6.439 0 01-1.314.476c-.448.11-.895.165-1.339.165-.965 0-1.737-.277-2.317-.832-.58-.558-.87-1.297-.87-2.215 0-.935.307-1.693.921-2.273.614-.579 1.413-.869 2.399-.869.893 0 1.634.271 2.222.812.588.542.882 1.198.882 1.968 0 .237-.05.396-.152.476-.097.08-.366.121-.806.121h-4.361zm.032-.832h4.132c-.063-.503-.275-.908-.635-1.212-.355-.309-.793-.464-1.314-.464-.563 0-1.036.148-1.422.445-.385.296-.639.706-.761 1.231zm11.654-2.025c.207 0 .358.036.451.108.097.072.146.186.146.343 0 .148-.045.26-.134.336-.088.072-.222.108-.4.108h-2.57v2.12c0 .694.089 1.151.266 1.371.182.221.491.331.927.331.385 0 .846-.113 1.384-.337.537-.224.869-.336.996-.336.119 0 .218.042.299.127a.424.424 0 01.127.311.506.506 0 01-.159.368c-.102.101-.277.201-.527.298a7.73 7.73 0 01-1.123.362c-.33.076-.641.114-.933.114-.496 0-.912-.078-1.251-.235a1.601 1.601 0 01-.749-.711 1.663 1.663 0 01-.184-.526 6.264 6.264 0 01-.051-.94v-2.317h-1.079c-.178 0-.307-.034-.387-.101-.081-.072-.121-.187-.121-.343 0-.174.055-.292.165-.356.11-.063.345-.095.705-.095h.717v-1.637c0-.182.038-.316.114-.4.081-.089.204-.134.369-.134.186 0 .315.053.387.159.072.106.108.347.108.724v1.288h2.507z" fill="teal"/><path d="M275.435 58.433c-.106 0-.182-.025-.229-.076-.046-.055-.078-.163-.095-.324l-.197-2.342v-.076c0-.102.025-.178.076-.229.051-.055.125-.082.222-.082h.603c.098 0 .172.027.223.082.05.051.076.127.076.229v.076l-.197 2.342c-.017.161-.049.269-.095.324-.047.05-.123.076-.229.076h-.158zm7.706.641c-.555 0-1.008.172-1.359.514-.351.343-.527.788-.527 1.333 0 .538.176.98.527 1.327.351.343.804.514 1.359.514.55 0 1-.171 1.352-.514.355-.347.533-.79.533-1.327 0-.537-.178-.98-.533-1.326-.352-.347-.802-.52-1.352-.52zm2.755 4.59c0 .592-.03 1.011-.089 1.256-.06.25-.161.468-.305.654-.237.313-.569.55-.997.711-.427.165-.931.248-1.51.248-.483 0-.836-.047-1.06-.14-.22-.093-.331-.241-.331-.444 0-.132.053-.248.159-.35a.566.566 0 01.387-.145c.115 0 .29.014.527.044.237.034.417.05.54.05.626 0 1.07-.143 1.333-.43.262-.289.393-.782.393-1.48v-.768c-.258.3-.543.52-.857.66-.313.14-.672.21-1.079.21-.791 0-1.447-.263-1.967-.787-.517-.53-.775-1.198-.775-2.006 0-.813.267-1.486.8-2.019.533-.537 1.193-.806 1.98-.806.326 0 .644.061.953.184.313.119.628.3.945.546v-.457c0-.089.028-.154.083-.197.059-.042.15-.063.273-.063h.958c.17 0 .297.038.381.114.085.072.127.182.127.33 0 .17-.053.288-.159.356-.105.067-.304.101-.596.101h-.114v4.628zm6.639-2.47a4.295 4.295 0 00-.679-.165 3.724 3.724 0 00-.648-.057c-.651 0-1.165.11-1.542.33-.377.22-.565.517-.565.889 0 .288.116.525.349.71.237.187.538.28.902.28.537 0 1.034-.14 1.491-.419.462-.283.692-.577.692-.882v-.686zm.051 2a3.814 3.814 0 01-1.136.717 3.31 3.31 0 01-1.257.248c-.631 0-1.141-.176-1.53-.527-.385-.351-.578-.808-.578-1.371 0-.669.256-1.187.769-1.555.516-.369 1.239-.553 2.17-.553.246 0 .493.017.743.051.25.03.506.078.768.146v-.044c0-.487-.116-.847-.349-1.08-.233-.232-.595-.349-1.085-.349-.33 0-.699.09-1.105.267-.406.178-.675.267-.806.267a.38.38 0 01-.305-.146.607.607 0 01-.12-.388c0-.25.232-.46.698-.634.47-.174 1.068-.26 1.796-.26.745 0 1.308.19 1.689.57.381.377.571.936.571 1.677v2.875h.311c.301 0 .502.032.603.095.102.064.152.178.152.343 0 .152-.042.267-.127.343-.084.076-.211.114-.38.114h-.997a.409.409 0 01-.292-.108.553.553 0 01-.152-.31l-.051-.388zm8.081-4.704c.207 0 .357.036.45.108.098.072.146.186.146.343 0 .148-.044.26-.133.336-.089.072-.222.108-.4.108h-2.571v2.12c0 .694.089 1.151.267 1.371.182.22.491.33.927.33.385 0 .846-.112 1.383-.336.538-.224.87-.336.997-.336.118 0 .218.042.298.127a.422.422 0 01.127.31c0 .14-.053.263-.158.369-.102.101-.278.2-.527.298a7.76 7.76 0 01-1.124.362c-.33.076-.641.114-.933.114-.495 0-.912-.078-1.25-.235a1.605 1.605 0 01-.749-.71 1.695 1.695 0 01-.185-.527 6.417 6.417 0 01-.05-.94v-2.317h-1.079c-.178 0-.307-.034-.388-.101-.08-.072-.12-.187-.12-.343 0-.174.055-.292.165-.356.11-.063.345-.095.704-.095h.718v-1.638c0-.181.038-.315.114-.4.08-.088.203-.133.368-.133.186 0 .315.053.387.159.072.106.108.347.108.724v1.288h2.508zm3.307 5.053v-1.13c0-.186.033-.32.101-.4.072-.08.186-.12.343-.12.173 0 .311.118.413.355.067.144.129.252.184.324.177.228.44.412.787.552.347.135.73.203 1.149.203.448 0 .808-.09 1.079-.273.271-.182.406-.42.406-.717 0-.3-.11-.514-.33-.641-.216-.127-.588-.19-1.117-.19h-.349c-.864 0-1.522-.15-1.974-.451-.453-.3-.68-.737-.68-1.308 0-.559.22-.992.66-1.301.445-.31 1.067-.464 1.867-.464.326 0 .658.047.996.14.339.089.517.133.533.133.047 0 .136-.04.267-.12a.71.71 0 01.387-.127c.144 0 .25.053.318.158.072.106.108.265.108.477v.742c0 .224-.034.388-.102.489-.068.097-.176.146-.324.146-.127 0-.283-.108-.469-.324a4.644 4.644 0 00-.324-.336 2.064 2.064 0 00-.717-.444 2.602 2.602 0 00-.895-.14c-.398 0-.72.089-.965.266-.242.174-.362.396-.362.667 0 .267.125.457.374.571.25.114.787.18 1.613.197.88.021 1.523.176 1.929.463.407.284.61.724.61 1.32a1.64 1.64 0 01-.673 1.372c-.449.343-1.054.514-1.816.514a5.25 5.25 0 01-.806-.07 13.186 13.186 0 01-1.117-.222c-.148.097-.275.17-.381.216a.644.644 0 01-.266.076.412.412 0 01-.343-.152c-.076-.106-.114-.256-.114-.451zm10.918-.425c.596 0 1.081-.189 1.453-.565.373-.377.559-.866.559-1.467 0-.588-.191-1.072-.571-1.453-.377-.381-.857-.572-1.441-.572-.589 0-1.071.191-1.448.572-.372.376-.558.861-.558 1.453 0 .593.186 1.08.558 1.46.377.381.859.572 1.448.572zm-1.981-4.07c.237-.295.533-.522.889-.678a2.96 2.96 0 011.206-.235c.85 0 1.559.288 2.126.863.567.571.851 1.28.851 2.127 0 .833-.292 1.54-.876 2.12-.58.58-1.289.87-2.127.87-.444 0-.831-.079-1.161-.236a1.994 1.994 0 01-.813-.71v.507c0 .114-.021.197-.063.248-.038.05-.104.076-.197.076h-1.162c-.165 0-.287-.038-.368-.114-.08-.076-.12-.19-.12-.343 0-.17.048-.284.146-.343.097-.063.29-.095.577-.095h.134v-6.5h-.121c-.288 0-.485-.034-.59-.102-.106-.067-.159-.186-.159-.355 0-.152.042-.267.127-.343.085-.076.209-.114.374-.114h.965c.127 0 .218.021.273.063.06.043.089.108.089.197v3.098zm8.969 6.577h.273c.309 0 .519.032.629.095.11.068.165.189.165.362 0 .148-.045.26-.134.337-.084.076-.209.114-.374.114h-2.926c-.199 0-.339-.034-.419-.102-.076-.068-.115-.184-.115-.349 0-.152.041-.267.121-.343.085-.076.21-.114.375-.114h1.377l1.028-2.025-2.329-4.564c-.28 0-.472-.034-.578-.101-.101-.068-.152-.187-.152-.356 0-.148.042-.258.127-.33.084-.076.211-.114.381-.114h1.771c.237 0 .395.034.476.101.08.064.12.178.12.343 0 .17-.053.288-.158.356-.106.067-.301.101-.584.101h-.235l1.72 3.498 1.752-3.498h-.248c-.292 0-.493-.034-.603-.101-.11-.068-.165-.187-.165-.356 0-.165.04-.28.121-.343.08-.067.241-.101.482-.101h1.568c.174 0 .301.038.381.114.085.072.127.182.127.33 0 .16-.047.275-.14.343-.093.068-.258.106-.495.114l-3.339 6.589zm5.637-3.942a.274.274 0 01-.203-.076.33.33 0 01-.07-.222v-.673c0-.08.023-.144.07-.19a.288.288 0 01.203-.07h5.262c.098 0 .174.023.229.07.055.046.082.11.082.19v.673a.289.289 0 01-.095.21.306.306 0 01-.216.088h-5.262zm8.817 3.942h1.523c.161 0 .282.038.362.114.081.076.121.19.121.343 0 .165-.04.281-.121.35-.076.067-.213.1-.412.1h-2.8c-.169 0-.298-.037-.387-.114-.085-.076-.127-.188-.127-.336 0-.17.053-.288.159-.355.11-.068.311-.102.603-.102h.12v-6.589h-.12c-.292 0-.493-.034-.603-.101-.106-.068-.159-.187-.159-.356 0-.148.042-.258.127-.33.089-.076.218-.114.387-.114h.965c.127 0 .218.02.273.063.059.043.089.108.089.197v.616a2.93 2.93 0 01.952-.667 2.878 2.878 0 011.13-.222c.851 0 1.562.288 2.133.863.571.576.857 1.297.857 2.165 0 .834-.271 1.52-.813 2.056-.541.538-1.233.807-2.075.807a3.19 3.19 0 01-1.238-.235 2.536 2.536 0 01-.946-.686v2.533zm1.968-2.545c.588 0 1.07-.184 1.447-.553.377-.372.565-.852.565-1.44 0-.576-.19-1.05-.571-1.422-.377-.377-.857-.565-1.441-.565-.584 0-1.062.186-1.435.558-.372.373-.558.849-.558 1.428 0 .584.184 1.063.552 1.435.372.372.853.559 1.441.559zm7.052-6.475h-1.079c-.411 0-.669-.032-.775-.095-.101-.068-.152-.188-.152-.362 0-.152.042-.267.127-.343.089-.076.216-.114.381-.114h2.095c.114 0 .203.023.266.07.064.046.095.11.095.19v7.154h1.994c.16 0 .277.036.349.108.076.068.114.178.114.33 0 .174-.036.294-.108.362-.072.063-.207.095-.406.095h-4.685c-.165 0-.292-.038-.381-.114-.084-.076-.127-.19-.127-.343 0-.148.045-.258.134-.33.089-.072.222-.108.4-.108h1.758v-6.5zm6.652 5.053c0 .533.112.922.337 1.168.224.245.58.368 1.066.368.461 0 .855-.146 1.181-.438.33-.292.495-.658.495-1.098v-2.622h-.87c-.165 0-.285-.034-.361-.101-.072-.072-.108-.182-.108-.33 0-.161.04-.28.12-.356.081-.076.21-.114.387-.114h1.352c.161 0 .273.036.337.108.068.067.101.237.101.508v4.354h.292c.208 0 .356.034.445.102.093.067.139.18.139.336 0 .152-.044.267-.133.343-.085.076-.209.114-.374.114h-.965a.447.447 0 01-.267-.07.225.225 0 01-.095-.19v-.432c-.406.313-.755.53-1.047.648a2.458 2.458 0 01-.914.171c-.699 0-1.223-.184-1.575-.552-.347-.373-.52-.933-.52-1.682v-2.857h-.133c-.288 0-.485-.034-.591-.101-.106-.068-.159-.187-.159-.356 0-.148.041-.258.121-.33.085-.076.214-.114.387-.114h.959c.148 0 .249.03.304.089.06.059.089.19.089.393v3.04zm9.211-2.584c-.555 0-1.007.172-1.359.514-.351.343-.526.788-.526 1.333 0 .538.175.98.526 1.327.352.343.804.514 1.359.514.55 0 1.001-.171 1.352-.514.355-.347.533-.79.533-1.327 0-.537-.178-.98-.533-1.326-.351-.347-.802-.52-1.352-.52zm2.755 4.59c0 .592-.03 1.011-.089 1.256-.059.25-.161.468-.305.654-.237.313-.569.55-.996.711-.428.165-.931.248-1.511.248-.483 0-.836-.047-1.06-.14-.22-.093-.33-.241-.33-.444 0-.132.053-.248.158-.35a.566.566 0 01.388-.145c.114 0 .289.014.526.044.237.034.417.05.54.05.626 0 1.071-.143 1.333-.43.262-.289.394-.782.394-1.48v-.768c-.259.3-.544.52-.857.66a2.63 2.63 0 01-1.08.21c-.791 0-1.447-.263-1.967-.787-.517-.53-.775-1.198-.775-2.006 0-.813.267-1.486.8-2.019.533-.537 1.193-.806 1.981-.806.325 0 .643.061.952.184.313.119.628.3.946.546v-.457c0-.089.027-.154.082-.197.059-.042.15-.063.273-.063h.958c.17 0 .297.038.381.114.085.072.127.182.127.33 0 .17-.053.288-.158.356-.106.067-.305.101-.597.101h-.114v4.628zm4.646-7.357c0-.457.04-.745.121-.864.084-.118.262-.177.533-.177.262 0 .436.05.52.152.085.097.127.332.127.705 0 .364-.04.59-.12.679-.076.084-.252.127-.527.127-.271 0-.449-.04-.533-.12-.081-.081-.121-.248-.121-.502zm1.174 6.798h2.038c.165 0 .286.036.362.108.08.068.12.178.12.33 0 .174-.038.294-.114.362-.072.063-.207.095-.406.095h-4.926c-.169 0-.296-.038-.381-.114-.084-.076-.127-.19-.127-.343 0-.148.045-.258.134-.33.089-.072.222-.108.4-.108h1.936v-4.069h-1.238c-.174 0-.307-.038-.4-.114-.089-.08-.133-.195-.133-.343 0-.148.042-.258.127-.33.084-.076.211-.114.38-.114h1.86c.115 0 .203.023.267.07.068.046.101.11.101.19v4.71zm4.856 0v-4.069h-.12c-.288 0-.487-.034-.597-.101-.106-.068-.159-.187-.159-.356 0-.157.045-.269.134-.336.089-.072.233-.108.431-.108H375.245c.114 0 .203.023.267.07.063.046.095.11.095.19v.432c.309-.288.614-.5.914-.635.305-.14.62-.21.946-.21.639 0 1.14.2 1.504.597.368.398.552.948.552 1.65v2.876h.299c.211 0 .364.036.457.108.093.068.139.178.139.33 0 .165-.05.284-.152.355-.097.068-.273.102-.527.102h-1.403c-.27 0-.444-.032-.52-.095-.076-.064-.114-.184-.114-.362 0-.165.044-.28.133-.343.089-.063.256-.095.501-.095h.223v-2.64c0-.496-.113-.872-.337-1.13-.224-.263-.55-.394-.977-.394-.432 0-.813.146-1.143.438-.33.292-.495.654-.495 1.085v2.641h.222c.254 0 .425.032.514.095.089.064.134.178.134.343 0 .178-.039.298-.115.362-.076.063-.262.095-.558.095h-1.498c-.174 0-.305-.036-.394-.108-.085-.076-.127-.193-.127-.349 0-.17.049-.284.146-.343.102-.063.296-.095.584-.095h.133zm7.522-1.422a.276.276 0 01-.203-.076.335.335 0 01-.07-.222v-.673a.26.26 0 01.07-.19.29.29 0 01.203-.07h5.263c.097 0 .173.023.228.07.055.046.083.11.083.19v.673a.29.29 0 01-.096.21.306.306 0 01-.215.088h-5.263zm12.366-3.167v-.026c0-.14.04-.241.12-.305.081-.067.205-.101.375-.101.173 0 .292.05.355.152.068.102.102.311.102.629v1.18c0 .157-.04.276-.121.356-.08.076-.201.114-.362.114a.483.483 0 01-.298-.095c-.08-.068-.18-.205-.298-.413a2.147 2.147 0 00-.743-.774 1.859 1.859 0 00-.997-.267c-.66 0-1.197.195-1.612.584-.41.39-.616.893-.616 1.511 0 .63.197 1.147.591 1.549.398.398.907.596 1.53.596.283 0 .552-.038.806-.114.258-.08.501-.199.73-.355.08-.051.188-.13.323-.235.275-.224.491-.337.648-.337.131 0 .237.043.317.127.085.08.127.187.127.318 0 .334-.317.677-.952 1.028-.63.347-1.301.52-2.012.52-.918 0-1.684-.293-2.298-.882-.609-.588-.914-1.322-.914-2.202 0-.88.305-1.615.914-2.203.609-.592 1.371-.889 2.285-.889.322 0 .643.045.965.134.326.084.671.218 1.035.4zm3.51 4.589v-6.5h-.121c-.287 0-.486-.034-.596-.102-.106-.067-.159-.186-.159-.355 0-.152.042-.267.127-.343.089-.076.216-.114.381-.114h.965c.114 0 .203.023.266.07.064.046.095.11.095.19v2.876c.309-.288.614-.5.914-.635.305-.14.62-.21.946-.21.639 0 1.141.2 1.505.597.368.398.552.948.552 1.65v2.876h.298c.212 0 .364.036.457.108.093.068.14.178.14.33 0 .152-.042.267-.127.343-.085.076-.212.114-.381.114h-1.688c-.199 0-.335-.032-.407-.095-.067-.068-.101-.188-.101-.362 0-.17.042-.284.127-.343.089-.063.254-.095.495-.095h.222v-2.64c0-.496-.112-.872-.336-1.13-.225-.263-.551-.394-.978-.394a1.68 1.68 0 00-1.149.438 1.399 1.399 0 00-.489 1.085v2.641h.223c.253 0 .425.032.514.095.089.064.133.178.133.343 0 .174-.036.294-.108.362-.068.063-.201.095-.4.095h-1.688c-.165 0-.29-.038-.375-.114-.08-.076-.12-.19-.12-.343 0-.17.048-.284.146-.343.101-.063.296-.095.584-.095h.133zm11.603-1.91a4.268 4.268 0 00-.679-.166 3.712 3.712 0 00-.647-.057c-.652 0-1.166.11-1.543.33-.376.22-.565.517-.565.889 0 .288.117.525.349.71.237.187.538.28.902.28.537 0 1.034-.14 1.492-.419.461-.283.691-.577.691-.882v-.686zm.051 1.999a3.814 3.814 0 01-1.136.717 3.307 3.307 0 01-1.257.248c-.63 0-1.14-.176-1.53-.527-.385-.351-.577-.808-.577-1.371 0-.669.256-1.187.768-1.555.516-.369 1.24-.553 2.171-.553.245 0 .493.017.742.051.25.03.506.078.768.146v-.044c0-.487-.116-.847-.349-1.08-.232-.232-.594-.349-1.085-.349-.33 0-.698.09-1.105.267-.406.178-.675.267-.806.267a.376.376 0 01-.304-.146.601.601 0 01-.121-.388c0-.25.233-.46.698-.634.47-.174 1.069-.26 1.797-.26.744 0 1.307.19 1.688.57.381.377.571.936.571 1.677v2.875h.311c.301 0 .502.032.603.095.102.064.153.178.153.343 0 .152-.043.267-.127.343-.085.076-.212.114-.381.114h-.997a.409.409 0 01-.292-.108.553.553 0 01-.152-.31l-.051-.388zm8.081-4.704c.207 0 .357.036.45.108.098.072.146.186.146.343 0 .148-.044.26-.133.336-.089.072-.222.108-.4.108h-2.571v2.12c0 .694.089 1.151.267 1.371.182.22.491.33.927.33.385 0 .846-.112 1.384-.336.537-.224.869-.336.996-.336.119 0 .218.042.299.127a.425.425 0 01.126.31c0 .14-.052.263-.158.369-.102.101-.277.2-.527.298a7.722 7.722 0 01-1.124.362c-.33.076-.641.114-.933.114-.495 0-.912-.078-1.25-.235a1.605 1.605 0 01-.749-.71 1.67 1.67 0 01-.184-.527 6.247 6.247 0 01-.051-.94v-2.317h-1.079c-.178 0-.307-.034-.387-.101-.081-.072-.121-.187-.121-.343 0-.174.055-.292.165-.356.11-.063.345-.095.705-.095h.717v-1.638c0-.181.038-.315.114-.4.081-.088.203-.133.368-.133.187 0 .316.053.388.159.071.106.107.347.107.724v1.288h2.508zm3.427 3.193a.276.276 0 01-.203-.076.335.335 0 01-.069-.222v-.673c0-.08.023-.144.069-.19a.29.29 0 01.203-.07h5.263c.097 0 .173.023.228.07.055.046.083.11.083.19v.673a.293.293 0 01-.095.21.31.31 0 01-.216.088h-5.263zm7.688 1.86v-1.13c0-.186.033-.32.101-.4.072-.08.186-.12.343-.12.173 0 .311.118.412.355.068.144.13.252.185.324.177.228.44.412.787.552.347.135.73.203 1.149.203.448 0 .808-.09 1.079-.273.27-.182.406-.42.406-.717 0-.3-.11-.514-.33-.641-.216-.127-.588-.19-1.117-.19h-.349c-.864 0-1.522-.15-1.975-.451-.452-.3-.679-.737-.679-1.308 0-.559.22-.992.66-1.301.445-.31 1.067-.464 1.867-.464.325 0 .658.047.996.14.339.089.516.133.533.133.047 0 .136-.04.267-.12a.71.71 0 01.387-.127c.144 0 .25.053.318.158.071.106.107.265.107.477v.742c0 .224-.033.388-.101.489-.068.097-.176.146-.324.146-.127 0-.283-.108-.47-.324a4.46 4.46 0 00-.323-.336 2.068 2.068 0 00-.718-.444 2.594 2.594 0 00-.895-.14c-.397 0-.719.089-.964.266-.242.174-.362.396-.362.667 0 .267.125.457.374.571.25.114.787.18 1.613.197.88.021 1.523.176 1.929.463.406.284.61.724.61 1.32a1.64 1.64 0 01-.673 1.372c-.449.343-1.054.514-1.816.514a5.24 5.24 0 01-.806-.07 13.186 13.186 0 01-1.117-.222c-.148.097-.275.17-.381.216a.648.648 0 01-.266.076.41.41 0 01-.343-.152c-.076-.106-.114-.256-.114-.451zm8.994-1.885c0 .533.112.922.337 1.168.224.245.579.368 1.066.368.461 0 .855-.146 1.181-.438.33-.292.495-.658.495-1.098v-2.622h-.87c-.165 0-.286-.034-.362-.101-.072-.072-.108-.182-.108-.33 0-.161.041-.28.121-.356.08-.076.209-.114.387-.114h1.352c.161 0 .273.036.337.108.067.067.101.237.101.508v4.354h.292c.208 0 .356.034.445.102.093.067.139.18.139.336 0 .152-.044.267-.133.343-.085.076-.21.114-.375.114h-.964a.443.443 0 01-.267-.07.222.222 0 01-.095-.19v-.432c-.407.313-.756.53-1.048.648a2.45 2.45 0 01-.914.171c-.698 0-1.223-.184-1.574-.552-.347-.373-.52-.933-.52-1.682v-2.857h-.134c-.287 0-.484-.034-.59-.101-.106-.068-.159-.187-.159-.356 0-.148.04-.258.121-.33.085-.076.214-.114.387-.114h.959c.148 0 .249.03.304.089.06.059.089.19.089.393v3.04zm7.751 3.967h1.523c.161 0 .281.038.362.114.08.076.12.19.12.343 0 .165-.04.281-.12.35-.076.067-.214.1-.413.1h-2.799c-.169 0-.298-.037-.387-.114-.085-.076-.127-.188-.127-.336 0-.17.053-.288.158-.355.111-.068.312-.102.604-.102h.12v-6.589h-.12c-.292 0-.493-.034-.604-.101-.105-.068-.158-.187-.158-.356 0-.148.042-.258.127-.33.089-.076.218-.114.387-.114h.965c.127 0 .218.02.273.063.059.043.089.108.089.197v.616a2.92 2.92 0 01.952-.667 2.878 2.878 0 011.13-.222c.85 0 1.561.288 2.132.863.572.576.857 1.297.857 2.165 0 .834-.27 1.52-.812 2.056-.542.538-1.234.807-2.076.807-.448 0-.861-.079-1.238-.235a2.54 2.54 0 01-.945-.686v2.533zm1.967-2.545c.589 0 1.071-.184 1.448-.553.376-.372.565-.852.565-1.44 0-.576-.191-1.05-.572-1.422-.376-.377-.857-.565-1.441-.565-.584 0-1.062.186-1.434.558-.373.373-.559.849-.559 1.428 0 .584.184 1.063.552 1.435.373.372.853.559 1.441.559zm5.84 2.545h1.524c.16 0 .281.038.361.114.081.076.121.19.121.343 0 .165-.04.281-.121.35-.076.067-.213.1-.412.1h-2.799c-.17 0-.299-.037-.388-.114-.084-.076-.127-.188-.127-.336 0-.17.053-.288.159-.355.11-.068.311-.102.603-.102h.121v-6.589h-.121c-.292 0-.493-.034-.603-.101-.106-.068-.159-.187-.159-.356 0-.148.043-.258.127-.33.089-.076.218-.114.388-.114h.964c.127 0 .218.02.273.063.06.043.089.108.089.197v.616a2.93 2.93 0 01.952-.667 2.881 2.881 0 011.13-.222c.851 0 1.562.288 2.133.863.571.576.857 1.297.857 2.165 0 .834-.271 1.52-.812 2.056-.542.538-1.234.807-2.076.807-.449 0-.861-.079-1.238-.235a2.536 2.536 0 01-.946-.686v2.533zm1.968-2.545c.588 0 1.071-.184 1.447-.553.377-.372.565-.852.565-1.44 0-.576-.19-1.05-.571-1.422-.377-.377-.857-.565-1.441-.565-.584 0-1.062.186-1.435.558-.372.373-.558.849-.558 1.428 0 .584.184 1.063.552 1.435.372.372.853.559 1.441.559zm7.478.19c.651 0 1.184-.205 1.599-.616.419-.414.629-.941.629-1.58 0-.64-.21-1.166-.629-1.58-.419-.42-.952-.63-1.599-.63-.648 0-1.181.21-1.6.63-.415.414-.622.94-.622 1.58 0 .643.207 1.17.622 1.58.415.41.948.616 1.6.616zm3.332-2.196c0 .905-.309 1.646-.927 2.221-.618.576-1.419.864-2.405.864-.982 0-1.782-.288-2.4-.864-.618-.575-.927-1.316-.927-2.221 0-.906.309-1.644.927-2.216.618-.575 1.418-.863 2.4-.863.981 0 1.781.288 2.399.863.622.576.933 1.314.933 2.216zm3.853 2.031h2.108c.165 0 .285.036.361.108.081.068.121.178.121.33 0 .174-.038.294-.114.362-.072.063-.208.095-.407.095h-4.151c-.165 0-.29-.038-.374-.114-.085-.076-.127-.19-.127-.343 0-.148.042-.258.127-.33.088-.072.224-.108.406-.108h1.104v-4.069h-.431c-.411 0-.667-.032-.768-.095-.102-.068-.153-.188-.153-.362 0-.148.04-.258.121-.33.084-.076.211-.114.381-.114h1.447c.114 0 .201.023.26.07.059.042.089.105.089.19v1.08c.402-.505.821-.879 1.257-1.124a2.826 2.826 0 011.409-.369c.377 0 .681.077.914.229.233.152.349.35.349.59a.588.588 0 01-.177.42.522.522 0 01-.381.177c-.098 0-.263-.064-.495-.19-.229-.132-.434-.197-.616-.197-.33 0-.679.118-1.047.355-.364.233-.769.603-1.213 1.111v2.628zm10.163-4.615c.207 0 .357.036.45.108.098.072.146.186.146.343 0 .148-.044.26-.133.336-.089.072-.222.108-.4.108h-2.571v2.12c0 .694.089 1.151.267 1.371.182.22.491.33.927.33.385 0 .846-.112 1.384-.336.537-.224.869-.336.996-.336.119 0 .218.042.298.127a.422.422 0 01.127.31c0 .14-.052.263-.158.369-.102.101-.277.2-.527.298a7.722 7.722 0 01-1.124.362c-.33.076-.641.114-.933.114-.495 0-.912-.078-1.25-.235a1.605 1.605 0 01-.749-.71 1.67 1.67 0 01-.184-.527 6.247 6.247 0 01-.051-.94v-2.317h-1.079c-.178 0-.307-.034-.387-.101-.081-.072-.121-.187-.121-.343 0-.174.055-.292.165-.356.11-.063.345-.095.705-.095h.717v-1.638c0-.181.038-.315.114-.4.08-.088.203-.133.368-.133.186 0 .316.053.387.159.072.106.108.347.108.724v1.288h2.508zm5.998-.057c-.106 0-.182-.025-.228-.076-.047-.055-.079-.163-.095-.324l-.197-2.342v-.076c0-.102.025-.178.076-.229.051-.055.125-.082.222-.082h.603c.097 0 .171.027.222.082.051.051.076.127.076.229v.076l-.196 2.342c-.017.161-.049.269-.096.324-.046.05-.122.076-.228.076h-.159z" fill="#A31515"/><defs><filter id="filter0_d" x="0" y="0" width="569" height="269" filterUnits="userSpaceOnUse" color-interpolation-filters="sRGB"><feFlood flood-opacity="0" result="BackgroundImageFix"/><feColorMatrix in="SourceAlpha" values="0 0 0 0 0 0 0 0 0 0 0 0 0 0 0 0 0 0 127 0"/><feOffset dy="4"/><feGaussianBlur stdDeviation="7.5"/><feColorMatrix values="0 0 0 0 0 0 0 0 0 0 0 0 0 0 0 0 0 0 0.25 0"/><feBlend in2="BackgroundImageFix" result="effect1_dropShadow"/><feBlend in="SourceGraphic" in2="effect1_dropShadow" result="shape"/></filter></defs></svg>